<svg width="220" height="59" viewBox="0 0 220 59" fill="none" xmlns="http://www.w3.org/2000/svg">
<g id="Frame 8">
<g id="Group 170">
<rect id="Rectangle 8" x="0.5" y="0.5" width="219" height="58" fill="white" stroke="#C4C4C4"/>
<path id="your name" d="M14.588 22.424L10.628 32.096H9.5L10.796 28.928L8.144 22.424H9.356L11.42 27.752L13.46 22.424H14.588ZM18.5537 29.108C17.9377 29.108 17.3777 28.968 16.8737 28.688C16.3777 28.408 15.9857 28.012 15.6977 27.5C15.4177 26.98 15.2777 26.38 15.2777 25.7C15.2777 25.028 15.4217 24.436 15.7097 23.924C16.0057 23.404 16.4057 23.008 16.9097 22.736C17.4137 22.456 17.9777 22.316 18.6017 22.316C19.2257 22.316 19.7897 22.456 20.2937 22.736C20.7977 23.008 21.1937 23.4 21.4817 23.912C21.7777 24.424 21.9257 25.02 21.9257 25.7C21.9257 26.38 21.7737 26.98 21.4697 27.5C21.1737 28.012 20.7697 28.408 20.2577 28.688C19.7457 28.968 19.1777 29.108 18.5537 29.108ZM18.5537 28.148C18.9457 28.148 19.3137 28.056 19.6577 27.872C20.0017 27.688 20.2777 27.412 20.4857 27.044C20.7017 26.676 20.8097 26.228 20.8097 25.7C20.8097 25.172 20.7057 24.724 20.4977 24.356C20.2897 23.988 20.0177 23.716 19.6817 23.54C19.3457 23.356 18.9817 23.264 18.5897 23.264C18.1897 23.264 17.8217 23.356 17.4857 23.54C17.1577 23.716 16.8937 23.988 16.6937 24.356C16.4937 24.724 16.3937 25.172 16.3937 25.7C16.3937 26.236 16.4897 26.688 16.6817 27.056C16.8817 27.424 17.1457 27.7 17.4737 27.884C17.8017 28.06 18.1617 28.148 18.5537 28.148ZM29.1935 22.424V29H28.1015V28.028C27.8935 28.364 27.6015 28.628 27.2255 28.82C26.8575 29.004 26.4495 29.096 26.0015 29.096C25.4895 29.096 25.0295 28.992 24.6215 28.784C24.2135 28.568 23.8895 28.248 23.6495 27.824C23.4175 27.4 23.3015 26.884 23.3015 26.276V22.424H24.3815V26.132C24.3815 26.78 24.5455 27.28 24.8735 27.632C25.2015 27.976 25.6495 28.148 26.2175 28.148C26.8015 28.148 27.2615 27.968 27.5975 27.608C27.9335 27.248 28.1015 26.724 28.1015 26.036V22.424H29.1935ZM32.1293 23.492C32.3213 23.116 32.5933 22.824 32.9453 22.616C33.3053 22.408 33.7413 22.304 34.2533 22.304V23.432H33.9653C32.7413 23.432 32.1293 24.096 32.1293 25.424V29H31.0373V22.424H32.1293V23.492ZM41.9171 22.304C42.7171 22.304 43.3651 22.548 43.8611 23.036C44.3571 23.516 44.6051 24.212 44.6051 25.124V29H43.5251V25.28C43.5251 24.624 43.3611 24.124 43.0331 23.78C42.7051 23.428 42.2571 23.252 41.6891 23.252C41.1131 23.252 40.6531 23.432 40.3091 23.792C39.9731 24.152 39.8051 24.676 39.8051 25.364V29H38.7131V22.424H39.8051V23.36C40.0211 23.024 40.3131 22.764 40.6811 22.58C41.0571 22.396 41.4691 22.304 41.9171 22.304ZM45.9808 25.688C45.9808 25.016 46.1168 24.428 46.3888 23.924C46.6608 23.412 47.0328 23.016 47.5048 22.736C47.9848 22.456 48.5168 22.316 49.1008 22.316C49.6768 22.316 50.1768 22.44 50.6008 22.688C51.0248 22.936 51.3408 23.248 51.5488 23.624V22.424H52.6528V29H51.5488V27.776C51.3328 28.16 51.0088 28.48 50.5768 28.736C50.1528 28.984 49.6568 29.108 49.0888 29.108C48.5048 29.108 47.9768 28.964 47.5048 28.676C47.0328 28.388 46.6608 27.984 46.3888 27.464C46.1168 26.944 45.9808 26.352 45.9808 25.688ZM51.5488 25.7C51.5488 25.204 51.4488 24.772 51.2488 24.404C51.0488 24.036 50.7768 23.756 50.4328 23.564C50.0968 23.364 49.7248 23.264 49.3168 23.264C48.9088 23.264 48.5368 23.36 48.2008 23.552C47.8648 23.744 47.5968 24.024 47.3968 24.392C47.1968 24.76 47.0968 25.192 47.0968 25.688C47.0968 26.192 47.1968 26.632 47.3968 27.008C47.5968 27.376 47.8648 27.66 48.2008 27.86C48.5368 28.052 48.9088 28.148 49.3168 28.148C49.7248 28.148 50.0968 28.052 50.4328 27.86C50.7768 27.66 51.0488 27.376 51.2488 27.008C51.4488 26.632 51.5488 26.196 51.5488 25.7ZM62.4062 22.304C62.9182 22.304 63.3742 22.412 63.7742 22.628C64.1742 22.836 64.4902 23.152 64.7222 23.576C64.9542 24 65.0702 24.516 65.0702 25.124V29H63.9902V25.28C63.9902 24.624 63.8262 24.124 63.4982 23.78C63.1782 23.428 62.7422 23.252 62.1902 23.252C61.6222 23.252 61.1702 23.436 60.8342 23.804C60.4982 24.164 60.3302 24.688 60.3302 25.376V29H59.2502V25.28C59.2502 24.624 59.0862 24.124 58.7582 23.78C58.4382 23.428 58.0022 23.252 57.4502 23.252C56.8822 23.252 56.4302 23.436 56.0942 23.804C55.7582 24.164 55.5902 24.688 55.5902 25.376V29H54.4982V22.424H55.5902V23.372C55.8062 23.028 56.0942 22.764 56.4542 22.58C56.8222 22.396 57.2262 22.304 57.6662 22.304C58.2182 22.304 58.7062 22.428 59.1302 22.676C59.5542 22.924 59.8702 23.288 60.0782 23.768C60.2622 23.304 60.5662 22.944 60.9902 22.688C61.4142 22.432 61.8862 22.304 62.4062 22.304ZM72.8615 25.46C72.8615 25.668 72.8495 25.888 72.8255 26.12H67.5695C67.6095 26.768 67.8295 27.276 68.2295 27.644C68.6375 28.004 69.1295 28.184 69.7055 28.184C70.1775 28.184 70.5695 28.076 70.8815 27.86C71.2015 27.636 71.4255 27.34 71.5535 26.972H72.7295C72.5535 27.604 72.2015 28.12 71.6735 28.52C71.1455 28.912 70.4895 29.108 69.7055 29.108C69.0815 29.108 68.5215 28.968 68.0255 28.688C67.5375 28.408 67.1535 28.012 66.8735 27.5C66.5935 26.98 66.4535 26.38 66.4535 25.7C66.4535 25.02 66.5895 24.424 66.8615 23.912C67.1335 23.4 67.5135 23.008 68.0015 22.736C68.4975 22.456 69.0655 22.316 69.7055 22.316C70.3295 22.316 70.8815 22.452 71.3615 22.724C71.8415 22.996 72.2095 23.372 72.4655 23.852C72.7295 24.324 72.8615 24.86 72.8615 25.46ZM71.7335 25.232C71.7335 24.816 71.6415 24.46 71.4575 24.164C71.2735 23.86 71.0215 23.632 70.7015 23.48C70.3895 23.32 70.0415 23.24 69.6575 23.24C69.1055 23.24 68.6335 23.416 68.2415 23.768C67.8575 24.12 67.6375 24.608 67.5815 25.232H71.7335Z" fill="#1A0DAB"/>
<path id="https://yourname.myty.in" d="M10.443 7.094C10.7323 7.094 10.9937 7.157 11.227 7.283C11.4603 7.40433 11.6423 7.58867 11.773 7.836C11.9083 8.08333 11.976 8.38433 11.976 8.739V11H11.346V8.83C11.346 8.44733 11.2503 8.15567 11.059 7.955C10.8677 7.74967 10.6063 7.647 10.275 7.647C9.939 7.647 9.67067 7.752 9.47 7.962C9.274 8.172 9.176 8.47767 9.176 8.879V11H8.539V5.82H9.176V7.71C9.302 7.514 9.47467 7.36233 9.694 7.255C9.918 7.14767 10.1677 7.094 10.443 7.094ZM13.7935 7.689V9.95C13.7935 10.1367 13.8332 10.2697 13.9125 10.349C13.9919 10.4237 14.1295 10.461 14.3255 10.461H14.7945V11H14.2205C13.8659 11 13.5999 10.9183 13.4225 10.755C13.2452 10.5917 13.1565 10.3233 13.1565 9.95V7.689H12.6595V7.164H13.1565V6.198H13.7935V7.164H14.7945V7.689H13.7935ZM16.3433 7.689V9.95C16.3433 10.1367 16.383 10.2697 16.4623 10.349C16.5417 10.4237 16.6793 10.461 16.8753 10.461H17.3443V11H16.7703C16.4157 11 16.1497 10.9183 15.9723 10.755C15.795 10.5917 15.7063 10.3233 15.7063 9.95V7.689H15.2093V7.164H15.7063V6.198H16.3433V7.164H17.3443V7.689H16.3433ZM18.7531 7.871C18.8791 7.65167 19.0658 7.46967 19.3131 7.325C19.5651 7.17567 19.8568 7.101 20.1881 7.101C20.5288 7.101 20.8368 7.18267 21.1121 7.346C21.3921 7.50933 21.6115 7.74033 21.7701 8.039C21.9288 8.333 22.0081 8.676 22.0081 9.068C22.0081 9.45533 21.9288 9.80067 21.7701 10.104C21.6115 10.4073 21.3921 10.643 21.1121 10.811C20.8368 10.979 20.5288 11.063 20.1881 11.063C19.8615 11.063 19.5721 10.9907 19.3201 10.846C19.0728 10.6967 18.8838 10.5123 18.7531 10.293V12.82H18.1161V7.164H18.7531V7.871ZM21.3571 9.068C21.3571 8.77867 21.2988 8.52667 21.1821 8.312C21.0655 8.09733 20.9068 7.934 20.7061 7.822C20.5101 7.71 20.2931 7.654 20.0551 7.654C19.8218 7.654 19.6048 7.71233 19.4041 7.829C19.2081 7.941 19.0495 8.10667 18.9281 8.326C18.8115 8.54067 18.7531 8.79033 18.7531 9.075C18.7531 9.36433 18.8115 9.61867 18.9281 9.838C19.0495 10.0527 19.2081 10.2183 19.4041 10.335C19.6048 10.447 19.8218 10.503 20.0551 10.503C20.2931 10.503 20.5101 10.447 20.7061 10.335C20.9068 10.2183 21.0655 10.0527 21.1821 9.838C21.2988 9.61867 21.3571 9.362 21.3571 9.068ZM24.2046 11.063C23.9106 11.063 23.647 11.014 23.4136 10.916C23.1803 10.8133 22.996 10.6733 22.8606 10.496C22.7253 10.314 22.6506 10.1063 22.6366 9.873H23.2946C23.3133 10.0643 23.402 10.2207 23.5606 10.342C23.724 10.4633 23.9363 10.524 24.1976 10.524C24.4403 10.524 24.6316 10.4703 24.7716 10.363C24.9116 10.2557 24.9816 10.1203 24.9816 9.957C24.9816 9.789 24.907 9.66533 24.7576 9.586C24.6083 9.502 24.3773 9.42033 24.0646 9.341C23.78 9.26633 23.5466 9.19167 23.3646 9.117C23.1873 9.03767 23.0333 8.92333 22.9026 8.774C22.7766 8.62 22.7136 8.41933 22.7136 8.172C22.7136 7.976 22.772 7.79633 22.8886 7.633C23.0053 7.46967 23.171 7.34133 23.3856 7.248C23.6003 7.15 23.8453 7.101 24.1206 7.101C24.5453 7.101 24.8883 7.20833 25.1496 7.423C25.411 7.63767 25.551 7.93167 25.5696 8.305H24.9326C24.9186 8.10433 24.837 7.94333 24.6876 7.822C24.543 7.70067 24.347 7.64 24.0996 7.64C23.871 7.64 23.689 7.689 23.5536 7.787C23.4183 7.885 23.3506 8.01333 23.3506 8.172C23.3506 8.298 23.3903 8.403 23.4696 8.487C23.5536 8.56633 23.6563 8.63167 23.7776 8.683C23.9036 8.72967 24.0763 8.78333 24.2956 8.844C24.571 8.91867 24.795 8.99333 24.9676 9.068C25.1403 9.138 25.2873 9.24533 25.4086 9.39C25.5346 9.53467 25.6 9.72367 25.6046 9.957C25.6046 10.167 25.5463 10.356 25.4296 10.524C25.313 10.692 25.1473 10.825 24.9326 10.923C24.7226 11.0163 24.48 11.063 24.2046 11.063ZM26.7068 11.042C26.5855 11.042 26.4828 11 26.3988 10.916C26.3148 10.832 26.2728 10.7293 26.2728 10.608C26.2728 10.4867 26.3148 10.384 26.3988 10.3C26.4828 10.216 26.5855 10.174 26.7068 10.174C26.8235 10.174 26.9215 10.216 27.0008 10.3C27.0848 10.384 27.1268 10.4867 27.1268 10.608C27.1268 10.7293 27.0848 10.832 27.0008 10.916C26.9215 11 26.8235 11.042 26.7068 11.042ZM26.7068 8.046C26.5855 8.046 26.4828 8.004 26.3988 7.92C26.3148 7.836 26.2728 7.73333 26.2728 7.612C26.2728 7.49067 26.3148 7.388 26.3988 7.304C26.4828 7.22 26.5855 7.178 26.7068 7.178C26.8235 7.178 26.9215 7.22 27.0008 7.304C27.0848 7.388 27.1268 7.49067 27.1268 7.612C27.1268 7.73333 27.0848 7.836 27.0008 7.92C26.9215 8.004 26.8235 8.046 26.7068 8.046ZM30.3741 4.406L28.4561 12.19H27.8261L29.7371 4.406H30.3741ZM33.7032 4.406L31.7852 12.19H31.1552L33.0662 4.406H33.7032ZM37.9563 7.164L35.6463 12.806H34.9883L35.7443 10.958L34.1973 7.164H34.9043L36.1083 10.272L37.2983 7.164H37.9563ZM40.2696 11.063C39.9103 11.063 39.5836 10.9813 39.2896 10.818C39.0003 10.6547 38.7716 10.4237 38.6036 10.125C38.4403 9.82167 38.3586 9.47167 38.3586 9.075C38.3586 8.683 38.4426 8.33767 38.6106 8.039C38.7833 7.73567 39.0166 7.50467 39.3106 7.346C39.6046 7.18267 39.9336 7.101 40.2976 7.101C40.6616 7.101 40.9906 7.18267 41.2846 7.346C41.5786 7.50467 41.8096 7.73333 41.9776 8.032C42.1503 8.33067 42.2366 8.67833 42.2366 9.075C42.2366 9.47167 42.148 9.82167 41.9706 10.125C41.798 10.4237 41.5623 10.6547 41.2636 10.818C40.965 10.9813 40.6336 11.063 40.2696 11.063ZM40.2696 10.503C40.4983 10.503 40.713 10.4493 40.9136 10.342C41.1143 10.2347 41.2753 10.0737 41.3966 9.859C41.5226 9.64433 41.5856 9.383 41.5856 9.075C41.5856 8.767 41.525 8.50567 41.4036 8.291C41.2823 8.07633 41.1236 7.91767 40.9276 7.815C40.7316 7.70767 40.5193 7.654 40.2906 7.654C40.0573 7.654 39.8426 7.70767 39.6466 7.815C39.4553 7.91767 39.3013 8.07633 39.1846 8.291C39.068 8.50567 39.0096 8.767 39.0096 9.075C39.0096 9.38767 39.0656 9.65133 39.1776 9.866C39.2943 10.0807 39.4483 10.2417 39.6396 10.349C39.831 10.4517 40.041 10.503 40.2696 10.503ZM46.4762 7.164V11H45.8392V10.433C45.7178 10.629 45.5475 10.783 45.3282 10.895C45.1135 11.0023 44.8755 11.056 44.6142 11.056C44.3155 11.056 44.0472 10.9953 43.8092 10.874C43.5712 10.748 43.3822 10.5613 43.2422 10.314C43.1068 10.0667 43.0392 9.76567 43.0392 9.411V7.164H43.6692V9.327C43.6692 9.705 43.7648 9.99667 43.9562 10.202C44.1475 10.4027 44.4088 10.503 44.7402 10.503C45.0808 10.503 45.3492 10.398 45.5452 10.188C45.7412 9.978 45.8392 9.67233 45.8392 9.271V7.164H46.4762ZM48.1887 7.787C48.3007 7.56767 48.4594 7.39733 48.6647 7.276C48.8747 7.15467 49.129 7.094 49.4277 7.094V7.752H49.2597C48.5457 7.752 48.1887 8.13933 48.1887 8.914V11H47.5517V7.164H48.1887V7.787ZM52.032 7.094C52.4987 7.094 52.8767 7.23633 53.166 7.521C53.4554 7.801 53.6 8.207 53.6 8.739V11H52.97V8.83C52.97 8.44733 52.8744 8.15567 52.683 7.955C52.4917 7.74967 52.2304 7.647 51.899 7.647C51.563 7.647 51.2947 7.752 51.094 7.962C50.898 8.172 50.8 8.47767 50.8 8.879V11H50.163V7.164H50.8V7.71C50.926 7.514 51.0964 7.36233 51.311 7.255C51.5304 7.14767 51.7707 7.094 52.032 7.094ZM54.4026 9.068C54.4026 8.676 54.4819 8.333 54.6406 8.039C54.7992 7.74033 55.0162 7.50933 55.2916 7.346C55.5716 7.18267 55.8819 7.101 56.2226 7.101C56.5586 7.101 56.8502 7.17333 57.0976 7.318C57.3449 7.46267 57.5292 7.64467 57.6506 7.864V7.164H58.2946V11H57.6506V10.286C57.5246 10.51 57.3356 10.6967 57.0836 10.846C56.8362 10.9907 56.5469 11.063 56.2156 11.063C55.8749 11.063 55.5669 10.979 55.2916 10.811C55.0162 10.643 54.7992 10.4073 54.6406 10.104C54.4819 9.80067 54.4026 9.45533 54.4026 9.068ZM57.6506 9.075C57.6506 8.78567 57.5922 8.53367 57.4756 8.319C57.3589 8.10433 57.2002 7.941 56.9996 7.829C56.8036 7.71233 56.5866 7.654 56.3486 7.654C56.1106 7.654 55.8936 7.71 55.6976 7.822C55.5016 7.934 55.3452 8.09733 55.2286 8.312C55.1119 8.52667 55.0536 8.77867 55.0536 9.068C55.0536 9.362 55.1119 9.61867 55.2286 9.838C55.3452 10.0527 55.5016 10.2183 55.6976 10.335C55.8936 10.447 56.1106 10.503 56.3486 10.503C56.5866 10.503 56.8036 10.447 56.9996 10.335C57.2002 10.2183 57.3589 10.0527 57.4756 9.838C57.5922 9.61867 57.6506 9.36433 57.6506 9.075ZM63.984 7.094C64.2827 7.094 64.5487 7.157 64.782 7.283C65.0154 7.40433 65.1997 7.58867 65.335 7.836C65.4704 8.08333 65.538 8.38433 65.538 8.739V11H64.908V8.83C64.908 8.44733 64.8124 8.15567 64.621 7.955C64.4344 7.74967 64.18 7.647 63.858 7.647C63.5267 7.647 63.263 7.75433 63.067 7.969C62.871 8.179 62.773 8.48467 62.773 8.886V11H62.143V8.83C62.143 8.44733 62.0474 8.15567 61.856 7.955C61.6694 7.74967 61.415 7.647 61.093 7.647C60.7617 7.647 60.498 7.75433 60.302 7.969C60.106 8.179 60.008 8.48467 60.008 8.886V11H59.371V7.164H60.008V7.717C60.134 7.51633 60.302 7.36233 60.512 7.255C60.7267 7.14767 60.9624 7.094 61.219 7.094C61.541 7.094 61.8257 7.16633 62.073 7.311C62.3204 7.45567 62.5047 7.668 62.626 7.948C62.7334 7.67733 62.9107 7.46733 63.158 7.318C63.4054 7.16867 63.6807 7.094 63.984 7.094ZM70.0829 8.935C70.0829 9.05633 70.0759 9.18467 70.0619 9.32H66.9959C67.0193 9.698 67.1476 9.99433 67.3809 10.209C67.6189 10.419 67.9059 10.524 68.2419 10.524C68.5173 10.524 68.7459 10.461 68.9279 10.335C69.1146 10.2043 69.2453 10.0317 69.3199 9.817H70.0059C69.9033 10.1857 69.6979 10.4867 69.3899 10.72C69.0819 10.9487 68.6993 11.063 68.2419 11.063C67.8779 11.063 67.5513 10.9813 67.2619 10.818C66.9773 10.6547 66.7533 10.4237 66.5899 10.125C66.4266 9.82167 66.3449 9.47167 66.3449 9.075C66.3449 8.67833 66.4243 8.33067 66.5829 8.032C66.7416 7.73333 66.9633 7.50467 67.2479 7.346C67.5373 7.18267 67.8686 7.101 68.2419 7.101C68.6059 7.101 68.9279 7.18033 69.2079 7.339C69.4879 7.49767 69.7026 7.717 69.8519 7.997C70.0059 8.27233 70.0829 8.585 70.0829 8.935ZM69.4249 8.802C69.4249 8.55933 69.3713 8.35167 69.2639 8.179C69.1566 8.00167 69.0096 7.86867 68.8229 7.78C68.6409 7.68667 68.4379 7.64 68.2139 7.64C67.8919 7.64 67.6166 7.74267 67.3879 7.948C67.1639 8.15333 67.0356 8.438 67.0029 8.802H69.4249ZM71.1268 11.042C71.0054 11.042 70.9028 11 70.8188 10.916C70.7348 10.832 70.6928 10.7293 70.6928 10.608C70.6928 10.4867 70.7348 10.384 70.8188 10.3C70.9028 10.216 71.0054 10.174 71.1268 10.174C71.2434 10.174 71.3414 10.216 71.4208 10.3C71.5048 10.384 71.5468 10.4867 71.5468 10.608C71.5468 10.7293 71.5048 10.832 71.4208 10.916C71.3414 11 71.2434 11.042 71.1268 11.042ZM77.0065 7.094C77.3052 7.094 77.5712 7.157 77.8045 7.283C78.0378 7.40433 78.2222 7.58867 78.3575 7.836C78.4928 8.08333 78.5605 8.38433 78.5605 8.739V11H77.9305V8.83C77.9305 8.44733 77.8348 8.15567 77.6435 7.955C77.4568 7.74967 77.2025 7.647 76.8805 7.647C76.5492 7.647 76.2855 7.75433 76.0895 7.969C75.8935 8.179 75.7955 8.48467 75.7955 8.886V11H75.1655V8.83C75.1655 8.44733 75.0698 8.15567 74.8785 7.955C74.6918 7.74967 74.4375 7.647 74.1155 7.647C73.7842 7.647 73.5205 7.75433 73.3245 7.969C73.1285 8.179 73.0305 8.48467 73.0305 8.886V11H72.3935V7.164H73.0305V7.717C73.1565 7.51633 73.3245 7.36233 73.5345 7.255C73.7492 7.14767 73.9848 7.094 74.2415 7.094C74.5635 7.094 74.8482 7.16633 75.0955 7.311C75.3428 7.45567 75.5272 7.668 75.6485 7.948C75.7558 7.67733 75.9332 7.46733 76.1805 7.318C76.4278 7.16867 76.7032 7.094 77.0065 7.094ZM82.9094 7.164L80.5994 12.806H79.9414L80.6974 10.958L79.1504 7.164H79.8574L81.0614 10.272L82.2514 7.164H82.9094ZM84.3267 7.689V9.95C84.3267 10.1367 84.3664 10.2697 84.4457 10.349C84.5251 10.4237 84.6627 10.461 84.8587 10.461H85.3277V11H84.7537C84.3991 11 84.1331 10.9183 83.9557 10.755C83.7784 10.5917 83.6897 10.3233 83.6897 9.95V7.689H83.1927V7.164H83.6897V6.198H84.3267V7.164H85.3277V7.689H84.3267ZM89.4035 7.164L87.0935 12.806H86.4355L87.1915 10.958L85.6445 7.164H86.3515L87.5555 10.272L88.7455 7.164H89.4035ZM90.2469 11.042C90.1255 11.042 90.0229 11 89.9389 10.916C89.8549 10.832 89.8129 10.7293 89.8129 10.608C89.8129 10.4867 89.8549 10.384 89.9389 10.3C90.0229 10.216 90.1255 10.174 90.2469 10.174C90.3635 10.174 90.4615 10.216 90.5409 10.3C90.6249 10.384 90.6669 10.4867 90.6669 10.608C90.6669 10.7293 90.6249 10.832 90.5409 10.916C90.4615 11 90.3635 11.042 90.2469 11.042ZM91.8426 6.541C91.7213 6.541 91.6186 6.499 91.5346 6.415C91.4506 6.331 91.4086 6.22833 91.4086 6.107C91.4086 5.98567 91.4506 5.883 91.5346 5.799C91.6186 5.715 91.7213 5.673 91.8426 5.673C91.9593 5.673 92.0573 5.715 92.1366 5.799C92.2206 5.883 92.2626 5.98567 92.2626 6.107C92.2626 6.22833 92.2206 6.331 92.1366 6.415C92.0573 6.499 91.9593 6.541 91.8426 6.541ZM92.1506 7.164V11H91.5136V7.164H92.1506ZM95.1053 7.094C95.5719 7.094 95.9499 7.23633 96.2393 7.521C96.5286 7.801 96.6733 8.207 96.6733 8.739V11H96.0433V8.83C96.0433 8.44733 95.9476 8.15567 95.7563 7.955C95.5649 7.74967 95.3036 7.647 94.9723 7.647C94.6363 7.647 94.3679 7.752 94.1673 7.962C93.9713 8.172 93.8733 8.47767 93.8733 8.879V11H93.2363V7.164H93.8733V7.71C93.9993 7.514 94.1696 7.36233 94.3843 7.255C94.6036 7.14767 94.8439 7.094 95.1053 7.094Z" fill="black"/>
<path id="Your name and your myty link will appear in the search results. You can choose to refine the search results with city name." d="M12.316 38.437L10.7365 41.492V43H9.625V41.492L8.0455 38.437H9.3065L10.1905 40.348L11.068 38.437H12.316ZM14.4148 43.052C14.0595 43.052 13.7388 42.9762 13.4528 42.8245C13.1712 42.6728 12.948 42.4562 12.7833 42.1745C12.623 41.8928 12.5428 41.5635 12.5428 41.1865C12.5428 40.8138 12.6252 40.4867 12.7898 40.205C12.9545 39.919 13.1798 39.7002 13.4658 39.5485C13.7518 39.3968 14.0725 39.321 14.4278 39.321C14.7832 39.321 15.1038 39.3968 15.3898 39.5485C15.6758 39.7002 15.9012 39.919 16.0658 40.205C16.2305 40.4867 16.3128 40.8138 16.3128 41.1865C16.3128 41.5592 16.2283 41.8885 16.0593 42.1745C15.8947 42.4562 15.6672 42.6728 15.3768 42.8245C15.0908 42.9762 14.7702 43.052 14.4148 43.052ZM14.4148 42.09C14.6272 42.09 14.807 42.012 14.9543 41.856C15.106 41.7 15.1818 41.4768 15.1818 41.1865C15.1818 40.8962 15.1082 40.673 14.9608 40.517C14.8178 40.361 14.6402 40.283 14.4278 40.283C14.2112 40.283 14.0313 40.361 13.8883 40.517C13.7453 40.6687 13.6738 40.8918 13.6738 41.1865C13.6738 41.4768 13.7432 41.7 13.8818 41.856C14.0248 42.012 14.2025 42.09 14.4148 42.09ZM20.484 39.373V43H19.3725V42.506C19.2598 42.6663 19.106 42.7963 18.911 42.896C18.7203 42.9913 18.508 43.039 18.274 43.039C17.9967 43.039 17.7518 42.9783 17.5395 42.857C17.3272 42.7313 17.1625 42.5515 17.0455 42.3175C16.9285 42.0835 16.87 41.8083 16.87 41.492V39.373H17.975V41.3425C17.975 41.5852 18.0378 41.7737 18.1635 41.908C18.2892 42.0423 18.4582 42.1095 18.6705 42.1095C18.8872 42.1095 19.0583 42.0423 19.184 41.908C19.3097 41.7737 19.3725 41.5852 19.3725 41.3425V39.373H20.484ZM22.3939 39.9775C22.5239 39.7782 22.6864 39.6222 22.8814 39.5095C23.0764 39.3925 23.2931 39.334 23.5314 39.334V40.5105H23.2259C22.9486 40.5105 22.7406 40.5712 22.6019 40.6925C22.4632 40.8095 22.3939 41.0175 22.3939 41.3165V43H21.2824V39.373H22.3939V39.9775ZM27.6501 39.334C28.0748 39.334 28.4128 39.4727 28.6641 39.75C28.9198 40.023 29.0476 40.4 29.0476 40.881V43H27.9426V41.0305C27.9426 40.7878 27.8798 40.5993 27.7541 40.465C27.6284 40.3307 27.4594 40.2635 27.2471 40.2635C27.0348 40.2635 26.8658 40.3307 26.7401 40.465C26.6144 40.5993 26.5516 40.7878 26.5516 41.0305V43H25.4401V39.373H26.5516V39.854C26.6643 39.6937 26.8159 39.568 27.0066 39.477C27.1973 39.3817 27.4118 39.334 27.6501 39.334ZM29.599 41.18C29.599 40.8073 29.6683 40.4802 29.807 40.1985C29.95 39.9168 30.1428 39.7002 30.3855 39.5485C30.6282 39.3968 30.899 39.321 31.198 39.321C31.4537 39.321 31.6768 39.373 31.8675 39.477C32.0625 39.581 32.212 39.7175 32.316 39.8865V39.373H33.4275V43H32.316V42.4865C32.2077 42.6555 32.056 42.792 31.861 42.896C31.6703 43 31.4472 43.052 31.1915 43.052C30.8968 43.052 30.6282 42.9762 30.3855 42.8245C30.1428 42.6685 29.95 42.4497 29.807 42.168C29.6683 41.882 29.599 41.5527 29.599 41.18ZM32.316 41.1865C32.316 40.9092 32.238 40.6903 32.082 40.53C31.9303 40.3697 31.744 40.2895 31.523 40.2895C31.302 40.2895 31.1135 40.3697 30.9575 40.53C30.8058 40.686 30.73 40.9027 30.73 41.18C30.73 41.4573 30.8058 41.6783 30.9575 41.843C31.1135 42.0033 31.302 42.0835 31.523 42.0835C31.744 42.0835 31.9303 42.0033 32.082 41.843C32.238 41.6827 32.316 41.4638 32.316 41.1865ZM38.8596 39.334C39.3103 39.334 39.6678 39.4705 39.9321 39.7435C40.2008 40.0165 40.3351 40.3957 40.3351 40.881V43H39.2301V41.0305C39.2301 40.7965 39.1673 40.6167 39.0416 40.491C38.9203 40.361 38.7513 40.296 38.5346 40.296C38.3179 40.296 38.1468 40.361 38.0211 40.491C37.8998 40.6167 37.8391 40.7965 37.8391 41.0305V43H36.7341V41.0305C36.7341 40.7965 36.6713 40.6167 36.5456 40.491C36.4243 40.361 36.2553 40.296 36.0386 40.296C35.8219 40.296 35.6508 40.361 35.5251 40.491C35.4038 40.6167 35.3431 40.7965 35.3431 41.0305V43H34.2316V39.373H35.3431V39.828C35.4558 39.6763 35.6031 39.5572 35.7851 39.4705C35.9671 39.3795 36.1729 39.334 36.4026 39.334C36.6756 39.334 36.9183 39.3925 37.1306 39.5095C37.3473 39.6265 37.5163 39.7933 37.6376 40.01C37.7633 39.8107 37.9344 39.6482 38.1511 39.5225C38.3678 39.3968 38.6039 39.334 38.8596 39.334ZM44.5315 41.128C44.5315 41.232 44.525 41.3403 44.512 41.453H41.9965C42.0138 41.6783 42.0853 41.8517 42.211 41.973C42.341 42.09 42.4991 42.1485 42.6855 42.1485C42.9628 42.1485 43.1556 42.0315 43.264 41.7975H44.447C44.3863 42.0358 44.2758 42.2503 44.1155 42.441C43.9595 42.6317 43.7623 42.7812 43.524 42.8895C43.2856 42.9978 43.0191 43.052 42.7245 43.052C42.3691 43.052 42.0528 42.9762 41.7755 42.8245C41.4981 42.6728 41.2815 42.4562 41.1255 42.1745C40.9695 41.8928 40.8915 41.5635 40.8915 41.1865C40.8915 40.8095 40.9673 40.4802 41.119 40.1985C41.275 39.9168 41.4916 39.7002 41.769 39.5485C42.0463 39.3968 42.3648 39.321 42.7245 39.321C43.0755 39.321 43.3875 39.3947 43.6605 39.542C43.9335 39.6893 44.1458 39.8995 44.2975 40.1725C44.4535 40.4455 44.5315 40.764 44.5315 41.128ZM43.394 40.8355C43.394 40.6448 43.329 40.4932 43.199 40.3805C43.069 40.2678 42.9065 40.2115 42.7115 40.2115C42.5251 40.2115 42.367 40.2657 42.237 40.374C42.1113 40.4823 42.0333 40.6362 42.003 40.8355H43.394ZM46.7273 41.206C46.7273 40.842 46.8009 40.5235 46.9483 40.2505C47.0956 39.9732 47.2971 39.7587 47.5528 39.607C47.8128 39.4553 48.1009 39.3795 48.4173 39.3795C48.7293 39.3795 49.0001 39.4467 49.2298 39.581C49.4594 39.7153 49.6306 39.8843 49.7433 40.088V39.438H50.3413V43H49.7433V42.337C49.6263 42.545 49.4508 42.7183 49.2168 42.857C48.9871 42.9913 48.7184 43.0585 48.4108 43.0585C48.0944 43.0585 47.8084 42.9805 47.5528 42.8245C47.2971 42.6685 47.0956 42.4497 46.9483 42.168C46.8009 41.8863 46.7273 41.5657 46.7273 41.206ZM49.7433 41.2125C49.7433 40.9438 49.6891 40.7098 49.5808 40.5105C49.4724 40.3112 49.3251 40.1595 49.1388 40.0555C48.9568 39.9472 48.7553 39.893 48.5343 39.893C48.3133 39.893 48.1118 39.945 47.9298 40.049C47.7478 40.153 47.6026 40.3047 47.4943 40.504C47.3859 40.7033 47.3318 40.9373 47.3318 41.206C47.3318 41.479 47.3859 41.7173 47.4943 41.921C47.6026 42.1203 47.7478 42.2742 47.9298 42.3825C48.1118 42.4865 48.3133 42.5385 48.5343 42.5385C48.7553 42.5385 48.9568 42.4865 49.1388 42.3825C49.3251 42.2742 49.4724 42.1203 49.5808 41.921C49.6891 41.7173 49.7433 41.4812 49.7433 41.2125ZM53.0763 39.373C53.5097 39.373 53.8607 39.5052 54.1293 39.7695C54.398 40.0295 54.5323 40.4065 54.5323 40.9005V43H53.9473V40.985C53.9473 40.6297 53.8585 40.3588 53.6808 40.1725C53.5032 39.9818 53.2605 39.8865 52.9528 39.8865C52.6408 39.8865 52.3917 39.984 52.2053 40.179C52.0233 40.374 51.9323 40.6578 51.9323 41.0305V43H51.3408V39.438H51.9323V39.945C52.0493 39.763 52.2075 39.6222 52.4068 39.5225C52.6105 39.4228 52.8337 39.373 53.0763 39.373ZM55.2775 41.206C55.2775 40.842 55.3512 40.5235 55.4985 40.2505C55.6459 39.9732 55.8474 39.7587 56.103 39.607C56.363 39.4553 56.6534 39.3795 56.974 39.3795C57.2514 39.3795 57.5092 39.4445 57.7475 39.5745C57.9859 39.7002 58.1679 39.867 58.2935 40.075V38.19H58.8915V43H58.2935V42.3305C58.1765 42.5428 58.0032 42.7183 57.7735 42.857C57.5439 42.9913 57.2752 43.0585 56.9675 43.0585C56.6512 43.0585 56.363 42.9805 56.103 42.8245C55.8474 42.6685 55.6459 42.4497 55.4985 42.168C55.3512 41.8863 55.2775 41.5657 55.2775 41.206ZM58.2935 41.2125C58.2935 40.9438 58.2394 40.7098 58.131 40.5105C58.0227 40.3112 57.8754 40.1595 57.689 40.0555C57.507 39.9472 57.3055 39.893 57.0845 39.893C56.8635 39.893 56.662 39.945 56.48 40.049C56.298 40.153 56.1529 40.3047 56.0445 40.504C55.9362 40.7033 55.882 40.9373 55.882 41.206C55.882 41.479 55.9362 41.7173 56.0445 41.921C56.1529 42.1203 56.298 42.2742 56.48 42.3825C56.662 42.4865 56.8635 42.5385 57.0845 42.5385C57.3055 42.5385 57.507 42.4865 57.689 42.3825C57.8754 42.2742 58.0227 42.1203 58.131 41.921C58.2394 41.7173 58.2935 41.4812 58.2935 41.2125ZM64.692 39.438L62.547 44.677H61.936L62.638 42.961L61.2015 39.438H61.858L62.976 42.324L64.081 39.438H64.692ZM66.8401 43.0585C66.5065 43.0585 66.2031 42.9827 65.9301 42.831C65.6615 42.6793 65.4491 42.4648 65.2931 42.1875C65.1415 41.9058 65.0656 41.5808 65.0656 41.2125C65.0656 40.8485 65.1436 40.5278 65.2996 40.2505C65.46 39.9688 65.6766 39.7543 65.9496 39.607C66.2226 39.4553 66.5281 39.3795 66.8661 39.3795C67.2041 39.3795 67.5096 39.4553 67.7826 39.607C68.0556 39.7543 68.2701 39.9667 68.4261 40.244C68.5865 40.5213 68.6666 40.8442 68.6666 41.2125C68.6666 41.5808 68.5843 41.9058 68.4196 42.1875C68.2593 42.4648 68.0405 42.6793 67.7631 42.831C67.4858 42.9827 67.1781 43.0585 66.8401 43.0585ZM66.8401 42.5385C67.0525 42.5385 67.2518 42.4887 67.4381 42.389C67.6245 42.2893 67.774 42.1398 67.8866 41.9405C68.0036 41.7412 68.0621 41.4985 68.0621 41.2125C68.0621 40.9265 68.0058 40.6838 67.8931 40.4845C67.7805 40.2852 67.6331 40.1378 67.4511 40.0425C67.2691 39.9428 67.072 39.893 66.8596 39.893C66.643 39.893 66.4436 39.9428 66.2616 40.0425C66.084 40.1378 65.941 40.2852 65.8326 40.4845C65.7243 40.6838 65.6701 40.9265 65.6701 41.2125C65.6701 41.5028 65.7221 41.7477 65.8261 41.947C65.9345 42.1463 66.0775 42.2958 66.2551 42.3955C66.4328 42.4908 66.6278 42.5385 66.8401 42.5385ZM72.6033 39.438V43H72.0118V42.4735C71.8992 42.6555 71.741 42.7985 71.5373 42.9025C71.338 43.0022 71.117 43.052 70.8743 43.052C70.597 43.052 70.3478 42.9957 70.1268 42.883C69.9058 42.766 69.7303 42.5927 69.6003 42.363C69.4747 42.1333 69.4118 41.8538 69.4118 41.5245V39.438H69.9968V41.4465C69.9968 41.7975 70.0857 42.0683 70.2633 42.259C70.441 42.4453 70.6837 42.5385 70.9913 42.5385C71.3077 42.5385 71.5568 42.441 71.7388 42.246C71.9208 42.051 72.0118 41.7672 72.0118 41.3945V39.438H72.6033ZM74.1936 40.0165C74.2976 39.8128 74.4449 39.6547 74.6356 39.542C74.8306 39.4293 75.0667 39.373 75.3441 39.373V39.984H75.1881C74.5251 39.984 74.1936 40.3437 74.1936 41.063V43H73.6021V39.438H74.1936V40.0165ZM82.0433 39.373C82.3206 39.373 82.5676 39.4315 82.7843 39.5485C83.0009 39.6612 83.1721 39.8323 83.2978 40.062C83.4234 40.2917 83.4863 40.5712 83.4863 40.9005V43H82.9013V40.985C82.9013 40.6297 82.8124 40.3588 82.6348 40.1725C82.4614 39.9818 82.2253 39.8865 81.9263 39.8865C81.6186 39.8865 81.3738 39.9862 81.1918 40.1855C81.0098 40.3805 80.9188 40.6643 80.9188 41.037V43H80.3338V40.985C80.3338 40.6297 80.2449 40.3588 80.0673 40.1725C79.8939 39.9818 79.6578 39.8865 79.3588 39.8865C79.0511 39.8865 78.8063 39.9862 78.6243 40.1855C78.4423 40.3805 78.3513 40.6643 78.3513 41.037V43H77.7598V39.438H78.3513V39.9515C78.4683 39.7652 78.6243 39.6222 78.8193 39.5225C79.0186 39.4228 79.2374 39.373 79.4758 39.373C79.7748 39.373 80.0391 39.4402 80.2688 39.5745C80.4984 39.7088 80.6696 39.906 80.7823 40.166C80.8819 39.9147 81.0466 39.7197 81.2763 39.581C81.5059 39.4423 81.7616 39.373 82.0433 39.373ZM87.5246 39.438L85.3796 44.677H84.7686L85.4706 42.961L84.0341 39.438H84.6906L85.8086 42.324L86.9136 39.438H87.5246ZM88.8407 39.9255V42.025C88.8407 42.1983 88.8775 42.3218 88.9512 42.3955C89.0248 42.4648 89.1527 42.4995 89.3347 42.4995H89.7702V43H89.2372C88.9078 43 88.6608 42.9242 88.4962 42.7725C88.3315 42.6208 88.2492 42.3717 88.2492 42.025V39.9255H87.7877V39.438H88.2492V38.541H88.8407V39.438H89.7702V39.9255H88.8407ZM93.5548 39.438L91.4098 44.677H90.7988L91.5008 42.961L90.0643 39.438H90.7208L91.8388 42.324L92.9438 39.438H93.5548ZM96.4738 38.19V43H95.8823V38.19H96.4738ZM97.7874 38.8595C97.6748 38.8595 97.5794 38.8205 97.5014 38.7425C97.4234 38.6645 97.3844 38.5692 97.3844 38.4565C97.3844 38.3438 97.4234 38.2485 97.5014 38.1705C97.5794 38.0925 97.6748 38.0535 97.7874 38.0535C97.8958 38.0535 97.9868 38.0925 98.0604 38.1705C98.1384 38.2485 98.1774 38.3438 98.1774 38.4565C98.1774 38.5692 98.1384 38.6645 98.0604 38.7425C97.9868 38.8205 97.8958 38.8595 97.7874 38.8595ZM98.0734 39.438V43H97.4819V39.438H98.0734ZM100.817 39.373C101.25 39.373 101.601 39.5052 101.87 39.7695C102.139 40.0295 102.273 40.4065 102.273 40.9005V43H101.688V40.985C101.688 40.6297 101.599 40.3588 101.422 40.1725C101.244 39.9818 101.001 39.8865 100.694 39.8865C100.382 39.8865 100.132 39.984 99.9461 40.179C99.7641 40.374 99.6731 40.6578 99.6731 41.0305V43H99.0816V39.438H99.6731V39.945C99.7901 39.763 99.9482 39.6222 100.148 39.5225C100.351 39.4228 100.574 39.373 100.817 39.373ZM105.228 43L103.831 41.427V43H103.239V38.19H103.831V41.0175L105.202 39.438H106.028L104.351 41.2125L106.034 43H105.228ZM113.062 39.438L111.951 43H111.34L110.482 40.1725L109.624 43H109.013L107.895 39.438H108.499L109.318 42.428L110.202 39.438H110.807L111.671 42.4345L112.477 39.438H113.062ZM113.955 38.8595C113.842 38.8595 113.747 38.8205 113.669 38.7425C113.591 38.6645 113.552 38.5692 113.552 38.4565C113.552 38.3438 113.591 38.2485 113.669 38.1705C113.747 38.0925 113.842 38.0535 113.955 38.0535C114.063 38.0535 114.154 38.0925 114.228 38.1705C114.306 38.2485 114.345 38.3438 114.345 38.4565C114.345 38.5692 114.306 38.6645 114.228 38.7425C114.154 38.8205 114.063 38.8595 113.955 38.8595ZM114.241 39.438V43H113.649V39.438H114.241ZM115.841 38.19V43H115.249V38.19H115.841ZM117.44 38.19V43H116.849V38.19H117.44ZM119.96 41.206C119.96 40.842 120.034 40.5235 120.181 40.2505C120.328 39.9732 120.53 39.7587 120.786 39.607C121.046 39.4553 121.334 39.3795 121.65 39.3795C121.962 39.3795 122.233 39.4467 122.463 39.581C122.692 39.7153 122.863 39.8843 122.976 40.088V39.438H123.574V43H122.976V42.337C122.859 42.545 122.684 42.7183 122.45 42.857C122.22 42.9913 121.951 43.0585 121.644 43.0585C121.327 43.0585 121.041 42.9805 120.786 42.8245C120.53 42.6685 120.328 42.4497 120.181 42.168C120.034 41.8863 119.96 41.5657 119.96 41.206ZM122.976 41.2125C122.976 40.9438 122.922 40.7098 122.814 40.5105C122.705 40.3112 122.558 40.1595 122.372 40.0555C122.19 39.9472 121.988 39.893 121.767 39.893C121.546 39.893 121.345 39.945 121.163 40.049C120.981 40.153 120.835 40.3047 120.727 40.504C120.619 40.7033 120.565 40.9373 120.565 41.206C120.565 41.479 120.619 41.7173 120.727 41.921C120.835 42.1203 120.981 42.2742 121.163 42.3825C121.345 42.4865 121.546 42.5385 121.767 42.5385C121.988 42.5385 122.19 42.4865 122.372 42.3825C122.558 42.2742 122.705 42.1203 122.814 41.921C122.922 41.7173 122.976 41.4812 122.976 41.2125ZM125.165 40.0945C125.282 39.8908 125.456 39.7218 125.685 39.5875C125.919 39.4488 126.19 39.3795 126.498 39.3795C126.814 39.3795 127.1 39.4553 127.356 39.607C127.616 39.7587 127.819 39.9732 127.967 40.2505C128.114 40.5235 128.188 40.842 128.188 41.206C128.188 41.5657 128.114 41.8863 127.967 42.168C127.819 42.4497 127.616 42.6685 127.356 42.8245C127.1 42.9805 126.814 43.0585 126.498 43.0585C126.194 43.0585 125.926 42.9913 125.692 42.857C125.462 42.7183 125.287 42.5472 125.165 42.3435V44.69H124.574V39.438H125.165V40.0945ZM127.583 41.206C127.583 40.9373 127.529 40.7033 127.421 40.504C127.312 40.3047 127.165 40.153 126.979 40.049C126.797 39.945 126.595 39.893 126.374 39.893C126.158 39.893 125.956 39.9472 125.77 40.0555C125.588 40.1595 125.44 40.3133 125.328 40.517C125.219 40.7163 125.165 40.9482 125.165 41.2125C125.165 41.4812 125.219 41.7173 125.328 41.921C125.44 42.1203 125.588 42.2742 125.77 42.3825C125.956 42.4865 126.158 42.5385 126.374 42.5385C126.595 42.5385 126.797 42.4865 126.979 42.3825C127.165 42.2742 127.312 42.1203 127.421 41.921C127.529 41.7173 127.583 41.479 127.583 41.206ZM129.558 40.0945C129.675 39.8908 129.848 39.7218 130.078 39.5875C130.312 39.4488 130.583 39.3795 130.89 39.3795C131.207 39.3795 131.493 39.4553 131.748 39.607C132.008 39.7587 132.212 39.9732 132.359 40.2505C132.507 40.5235 132.58 40.842 132.58 41.206C132.58 41.5657 132.507 41.8863 132.359 42.168C132.212 42.4497 132.008 42.6685 131.748 42.8245C131.493 42.9805 131.207 43.0585 130.89 43.0585C130.587 43.0585 130.318 42.9913 130.084 42.857C129.855 42.7183 129.679 42.5472 129.558 42.3435V44.69H128.966V39.438H129.558V40.0945ZM131.976 41.206C131.976 40.9373 131.922 40.7033 131.813 40.504C131.705 40.3047 131.558 40.153 131.371 40.049C131.189 39.945 130.988 39.893 130.767 39.893C130.55 39.893 130.349 39.9472 130.162 40.0555C129.98 40.1595 129.833 40.3133 129.72 40.517C129.612 40.7163 129.558 40.9482 129.558 41.2125C129.558 41.4812 129.612 41.7173 129.72 41.921C129.833 42.1203 129.98 42.2742 130.162 42.3825C130.349 42.4865 130.55 42.5385 130.767 42.5385C130.988 42.5385 131.189 42.4865 131.371 42.3825C131.558 42.2742 131.705 42.1203 131.813 41.921C131.922 41.7173 131.976 41.479 131.976 41.206ZM136.609 41.0825C136.609 41.1952 136.602 41.3143 136.589 41.44H133.742C133.764 41.791 133.883 42.0662 134.1 42.2655C134.321 42.4605 134.587 42.558 134.899 42.558C135.155 42.558 135.367 42.4995 135.536 42.3825C135.71 42.2612 135.831 42.1008 135.9 41.9015H136.537C136.442 42.2438 136.251 42.5233 135.965 42.74C135.679 42.9523 135.324 43.0585 134.899 43.0585C134.561 43.0585 134.258 42.9827 133.989 42.831C133.725 42.6793 133.517 42.4648 133.365 42.1875C133.214 41.9058 133.138 41.5808 133.138 41.2125C133.138 40.8442 133.212 40.5213 133.359 40.244C133.506 39.9667 133.712 39.7543 133.976 39.607C134.245 39.4553 134.553 39.3795 134.899 39.3795C135.237 39.3795 135.536 39.4532 135.796 39.6005C136.056 39.7478 136.256 39.9515 136.394 40.2115C136.537 40.4672 136.609 40.7575 136.609 41.0825ZM135.998 40.959C135.998 40.7337 135.948 40.5408 135.848 40.3805C135.749 40.2158 135.612 40.0923 135.439 40.01C135.27 39.9233 135.081 39.88 134.873 39.88C134.574 39.88 134.319 39.9753 134.106 40.166C133.898 40.3567 133.779 40.621 133.749 40.959H135.998ZM137.169 41.206C137.169 40.842 137.242 40.5235 137.39 40.2505C137.537 39.9732 137.738 39.7587 137.994 39.607C138.254 39.4553 138.542 39.3795 138.859 39.3795C139.171 39.3795 139.441 39.4467 139.671 39.581C139.901 39.7153 140.072 39.8843 140.185 40.088V39.438H140.783V43H140.185V42.337C140.068 42.545 139.892 42.7183 139.658 42.857C139.428 42.9913 139.16 43.0585 138.852 43.0585C138.536 43.0585 138.25 42.9805 137.994 42.8245C137.738 42.6685 137.537 42.4497 137.39 42.168C137.242 41.8863 137.169 41.5657 137.169 41.206ZM140.185 41.2125C140.185 40.9438 140.13 40.7098 140.022 40.5105C139.914 40.3112 139.766 40.1595 139.58 40.0555C139.398 39.9472 139.197 39.893 138.976 39.893C138.755 39.893 138.553 39.945 138.371 40.049C138.189 40.153 138.044 40.3047 137.936 40.504C137.827 40.7033 137.773 40.9373 137.773 41.206C137.773 41.479 137.827 41.7173 137.936 41.921C138.044 42.1203 138.189 42.2742 138.371 42.3825C138.553 42.4865 138.755 42.5385 138.976 42.5385C139.197 42.5385 139.398 42.4865 139.58 42.3825C139.766 42.2742 139.914 42.1203 140.022 41.921C140.13 41.7173 140.185 41.4812 140.185 41.2125ZM142.374 40.0165C142.478 39.8128 142.625 39.6547 142.816 39.542C143.011 39.4293 143.247 39.373 143.524 39.373V39.984H143.368C142.705 39.984 142.374 40.3437 142.374 41.063V43H141.782V39.438H142.374V40.0165ZM146.245 38.8595C146.133 38.8595 146.037 38.8205 145.959 38.7425C145.881 38.6645 145.842 38.5692 145.842 38.4565C145.842 38.3438 145.881 38.2485 145.959 38.1705C146.037 38.0925 146.133 38.0535 146.245 38.0535C146.354 38.0535 146.445 38.0925 146.518 38.1705C146.596 38.2485 146.635 38.3438 146.635 38.4565C146.635 38.5692 146.596 38.6645 146.518 38.7425C146.445 38.8205 146.354 38.8595 146.245 38.8595ZM146.531 39.438V43H145.94V39.438H146.531ZM149.275 39.373C149.708 39.373 150.059 39.5052 150.328 39.7695C150.597 40.0295 150.731 40.4065 150.731 40.9005V43H150.146V40.985C150.146 40.6297 150.057 40.3588 149.88 40.1725C149.702 39.9818 149.459 39.8865 149.152 39.8865C148.84 39.8865 148.59 39.984 148.404 40.179C148.222 40.374 148.131 40.6578 148.131 41.0305V43H147.54V39.438H148.131V39.945C148.248 39.763 148.406 39.6222 148.606 39.5225C148.809 39.4228 149.032 39.373 149.275 39.373ZM154.152 39.9255V42.025C154.152 42.1983 154.189 42.3218 154.262 42.3955C154.336 42.4648 154.464 42.4995 154.646 42.4995H155.081V43H154.548C154.219 43 153.972 42.9242 153.807 42.7725C153.643 42.6208 153.56 42.3717 153.56 42.025V39.9255H153.099V39.438H153.56V38.541H154.152V39.438H155.081V39.9255H154.152ZM157.566 39.373C157.835 39.373 158.077 39.4315 158.294 39.5485C158.511 39.6612 158.68 39.8323 158.801 40.062C158.927 40.2917 158.989 40.5712 158.989 40.9005V43H158.404V40.985C158.404 40.6297 158.316 40.3588 158.138 40.1725C157.96 39.9818 157.718 39.8865 157.41 39.8865C157.098 39.8865 156.849 39.984 156.662 40.179C156.48 40.374 156.389 40.6578 156.389 41.0305V43H155.798V38.19H156.389V39.945C156.506 39.763 156.667 39.6222 156.87 39.5225C157.078 39.4228 157.31 39.373 157.566 39.373ZM163.206 41.0825C163.206 41.1952 163.199 41.3143 163.186 41.44H160.339C160.361 41.791 160.48 42.0662 160.697 42.2655C160.918 42.4605 161.184 42.558 161.496 42.558C161.752 42.558 161.964 42.4995 162.133 42.3825C162.306 42.2612 162.428 42.1008 162.497 41.9015H163.134C163.039 42.2438 162.848 42.5233 162.562 42.74C162.276 42.9523 161.921 43.0585 161.496 43.0585C161.158 43.0585 160.855 42.9827 160.586 42.831C160.322 42.6793 160.114 42.4648 159.962 42.1875C159.81 41.9058 159.735 41.5808 159.735 41.2125C159.735 40.8442 159.808 40.5213 159.956 40.244C160.103 39.9667 160.309 39.7543 160.573 39.607C160.842 39.4553 161.149 39.3795 161.496 39.3795C161.834 39.3795 162.133 39.4532 162.393 39.6005C162.653 39.7478 162.852 39.9515 162.991 40.2115C163.134 40.4672 163.206 40.7575 163.206 41.0825ZM162.595 40.959C162.595 40.7337 162.545 40.5408 162.445 40.3805C162.345 40.2158 162.209 40.0923 162.036 40.01C161.867 39.9233 161.678 39.88 161.47 39.88C161.171 39.88 160.915 39.9753 160.703 40.166C160.495 40.3567 160.376 40.621 160.346 40.959H162.595ZM166.98 43.0585C166.707 43.0585 166.462 43.013 166.246 42.922C166.029 42.8267 165.858 42.6967 165.732 42.532C165.607 42.363 165.537 42.1702 165.524 41.9535H166.135C166.153 42.1312 166.235 42.2763 166.382 42.389C166.534 42.5017 166.731 42.558 166.974 42.558C167.199 42.558 167.377 42.5082 167.507 42.4085C167.637 42.3088 167.702 42.1832 167.702 42.0315C167.702 41.8755 167.632 41.7607 167.494 41.687C167.355 41.609 167.141 41.5332 166.85 41.4595C166.586 41.3902 166.369 41.3208 166.2 41.2515C166.036 41.1778 165.893 41.0717 165.771 40.933C165.654 40.79 165.596 40.6037 165.596 40.374C165.596 40.192 165.65 40.0252 165.758 39.8735C165.867 39.7218 166.02 39.6027 166.22 39.516C166.419 39.425 166.647 39.3795 166.902 39.3795C167.297 39.3795 167.615 39.4792 167.858 39.6785C168.1 39.8778 168.23 40.1508 168.248 40.4975H167.656C167.643 40.3112 167.567 40.1617 167.429 40.049C167.294 39.9363 167.112 39.88 166.883 39.88C166.67 39.88 166.501 39.9255 166.376 40.0165C166.25 40.1075 166.187 40.2267 166.187 40.374C166.187 40.491 166.224 40.5885 166.298 40.6665C166.376 40.7402 166.471 40.8008 166.584 40.8485C166.701 40.8918 166.861 40.9417 167.065 40.998C167.32 41.0673 167.528 41.1367 167.689 41.206C167.849 41.271 167.986 41.3707 168.098 41.505C168.215 41.6393 168.276 41.8148 168.28 42.0315C168.28 42.2265 168.226 42.402 168.118 42.558C168.009 42.714 167.856 42.8375 167.656 42.9285C167.461 43.0152 167.236 43.0585 166.98 43.0585ZM172.365 41.0825C172.365 41.1952 172.359 41.3143 172.346 41.44H169.499C169.52 41.791 169.64 42.0662 169.856 42.2655C170.077 42.4605 170.344 42.558 170.656 42.558C170.911 42.558 171.124 42.4995 171.293 42.3825C171.466 42.2612 171.587 42.1008 171.657 41.9015H172.294C172.198 42.2438 172.008 42.5233 171.722 42.74C171.436 42.9523 171.08 43.0585 170.656 43.0585C170.318 43.0585 170.014 42.9827 169.746 42.831C169.481 42.6793 169.273 42.4648 169.122 42.1875C168.97 41.9058 168.894 41.5808 168.894 41.2125C168.894 40.8442 168.968 40.5213 169.115 40.244C169.263 39.9667 169.468 39.7543 169.733 39.607C170.001 39.4553 170.309 39.3795 170.656 39.3795C170.994 39.3795 171.293 39.4532 171.553 39.6005C171.813 39.7478 172.012 39.9515 172.151 40.2115C172.294 40.4672 172.365 40.7575 172.365 41.0825ZM171.754 40.959C171.754 40.7337 171.704 40.5408 171.605 40.3805C171.505 40.2158 171.369 40.0923 171.195 40.01C171.026 39.9233 170.838 39.88 170.63 39.88C170.331 39.88 170.075 39.9753 169.863 40.166C169.655 40.3567 169.536 40.621 169.505 40.959H171.754ZM172.925 41.206C172.925 40.842 172.999 40.5235 173.146 40.2505C173.293 39.9732 173.495 39.7587 173.751 39.607C174.011 39.4553 174.299 39.3795 174.615 39.3795C174.927 39.3795 175.198 39.4467 175.428 39.581C175.657 39.7153 175.828 39.8843 175.941 40.088V39.438H176.539V43H175.941V42.337C175.824 42.545 175.649 42.7183 175.415 42.857C175.185 42.9913 174.916 43.0585 174.609 43.0585C174.292 43.0585 174.006 42.9805 173.751 42.8245C173.495 42.6685 173.293 42.4497 173.146 42.168C172.999 41.8863 172.925 41.5657 172.925 41.206ZM175.941 41.2125C175.941 40.9438 175.887 40.7098 175.779 40.5105C175.67 40.3112 175.523 40.1595 175.337 40.0555C175.155 39.9472 174.953 39.893 174.732 39.893C174.511 39.893 174.31 39.945 174.128 40.049C173.946 40.153 173.8 40.3047 173.692 40.504C173.584 40.7033 173.53 40.9373 173.53 41.206C173.53 41.479 173.584 41.7173 173.692 41.921C173.8 42.1203 173.946 42.2742 174.128 42.3825C174.31 42.4865 174.511 42.5385 174.732 42.5385C174.953 42.5385 175.155 42.4865 175.337 42.3825C175.523 42.2742 175.67 42.1203 175.779 41.921C175.887 41.7173 175.941 41.4812 175.941 41.2125ZM178.13 40.0165C178.234 39.8128 178.381 39.6547 178.572 39.542C178.767 39.4293 179.003 39.373 179.281 39.373V39.984H179.125C178.462 39.984 178.13 40.3437 178.13 41.063V43H177.539V39.438H178.13V40.0165ZM179.742 41.2125C179.742 40.8442 179.816 40.5235 179.963 40.2505C180.111 39.9732 180.314 39.7587 180.574 39.607C180.839 39.4553 181.14 39.3795 181.478 39.3795C181.916 39.3795 182.275 39.4857 182.557 39.698C182.843 39.9103 183.031 40.205 183.122 40.582H182.485C182.425 40.3653 182.306 40.1942 182.128 40.0685C181.955 39.9428 181.738 39.88 181.478 39.88C181.14 39.88 180.867 39.997 180.659 40.231C180.451 40.4607 180.347 40.7878 180.347 41.2125C180.347 41.6415 180.451 41.973 180.659 42.207C180.867 42.441 181.14 42.558 181.478 42.558C181.738 42.558 181.955 42.4973 182.128 42.376C182.301 42.2547 182.42 42.0813 182.485 41.856H183.122C183.027 42.22 182.836 42.5125 182.55 42.7335C182.264 42.9502 181.907 43.0585 181.478 43.0585C181.14 43.0585 180.839 42.9827 180.574 42.831C180.314 42.6793 180.111 42.4648 179.963 42.1875C179.816 41.9102 179.742 41.5852 179.742 41.2125ZM185.68 39.373C185.948 39.373 186.191 39.4315 186.408 39.5485C186.624 39.6612 186.793 39.8323 186.915 40.062C187.04 40.2917 187.103 40.5712 187.103 40.9005V43H186.518V40.985C186.518 40.6297 186.429 40.3588 186.252 40.1725C186.074 39.9818 185.831 39.8865 185.524 39.8865C185.212 39.8865 184.962 39.984 184.776 40.179C184.594 40.374 184.503 40.6578 184.503 41.0305V43H183.912V38.19H184.503V39.945C184.62 39.763 184.78 39.6222 184.984 39.5225C185.192 39.4228 185.424 39.373 185.68 39.373ZM190.394 40.0165C190.498 39.8128 190.645 39.6547 190.836 39.542C191.031 39.4293 191.267 39.373 191.544 39.373V39.984H191.388C190.725 39.984 190.394 40.3437 190.394 41.063V43H189.802V39.438H190.394V40.0165ZM195.477 41.0825C195.477 41.1952 195.471 41.3143 195.458 41.44H192.611C192.632 41.791 192.751 42.0662 192.968 42.2655C193.189 42.4605 193.456 42.558 193.768 42.558C194.023 42.558 194.236 42.4995 194.405 42.3825C194.578 42.2612 194.699 42.1008 194.769 41.9015H195.406C195.31 42.2438 195.12 42.5233 194.834 42.74C194.548 42.9523 194.192 43.0585 193.768 43.0585C193.43 43.0585 193.126 42.9827 192.858 42.831C192.593 42.6793 192.385 42.4648 192.234 42.1875C192.082 41.9058 192.006 41.5808 192.006 41.2125C192.006 40.8442 192.08 40.5213 192.227 40.244C192.374 39.9667 192.58 39.7543 192.845 39.607C193.113 39.4553 193.421 39.3795 193.768 39.3795C194.106 39.3795 194.405 39.4532 194.665 39.6005C194.925 39.7478 195.124 39.9515 195.263 40.2115C195.406 40.4672 195.477 40.7575 195.477 41.0825ZM194.866 40.959C194.866 40.7337 194.816 40.5408 194.717 40.3805C194.617 40.2158 194.48 40.0923 194.307 40.01C194.138 39.9233 193.95 39.88 193.742 39.88C193.443 39.88 193.187 39.9753 192.975 40.166C192.767 40.3567 192.647 40.621 192.617 40.959H194.866ZM197.519 43.0585C197.246 43.0585 197.001 43.013 196.784 42.922C196.568 42.8267 196.396 42.6967 196.271 42.532C196.145 42.363 196.076 42.1702 196.063 41.9535H196.674C196.691 42.1312 196.773 42.2763 196.921 42.389C197.072 42.5017 197.27 42.558 197.512 42.558C197.738 42.558 197.915 42.5082 198.045 42.4085C198.175 42.3088 198.24 42.1832 198.24 42.0315C198.24 41.8755 198.171 41.7607 198.032 41.687C197.894 41.609 197.679 41.5332 197.389 41.4595C197.124 41.3902 196.908 41.3208 196.739 41.2515C196.574 41.1778 196.431 41.0717 196.31 40.933C196.193 40.79 196.134 40.6037 196.134 40.374C196.134 40.192 196.188 40.0252 196.297 39.8735C196.405 39.7218 196.559 39.6027 196.758 39.516C196.958 39.425 197.185 39.3795 197.441 39.3795C197.835 39.3795 198.154 39.4792 198.396 39.6785C198.639 39.8778 198.769 40.1508 198.786 40.4975H198.195C198.182 40.3112 198.106 40.1617 197.967 40.049C197.833 39.9363 197.651 39.88 197.421 39.88C197.209 39.88 197.04 39.9255 196.914 40.0165C196.789 40.1075 196.726 40.2267 196.726 40.374C196.726 40.491 196.763 40.5885 196.836 40.6665C196.914 40.7402 197.01 40.8008 197.122 40.8485C197.239 40.8918 197.4 40.9417 197.603 40.998C197.859 41.0673 198.067 41.1367 198.227 41.206C198.388 41.271 198.524 41.3707 198.637 41.505C198.754 41.6393 198.814 41.8148 198.819 42.0315C198.819 42.2265 198.765 42.402 198.656 42.558C198.548 42.714 198.394 42.8375 198.195 42.9285C198 43.0152 197.774 43.0585 197.519 43.0585ZM202.813 39.438V43H202.221V42.4735C202.109 42.6555 201.95 42.7985 201.747 42.9025C201.547 43.0022 201.326 43.052 201.084 43.052C200.806 43.052 200.557 42.9957 200.336 42.883C200.115 42.766 199.94 42.5927 199.81 42.363C199.684 42.1333 199.621 41.8538 199.621 41.5245V39.438H200.206V41.4465C200.206 41.7975 200.295 42.0683 200.473 42.259C200.65 42.4453 200.893 42.5385 201.201 42.5385C201.517 42.5385 201.766 42.441 201.948 42.246C202.13 42.051 202.221 41.7672 202.221 41.3945V39.438H202.813ZM204.403 38.19V43H203.812V38.19H204.403ZM206.133 39.9255V42.025C206.133 42.1983 206.169 42.3218 206.243 42.3955C206.317 42.4648 206.445 42.4995 206.627 42.4995H207.062V43H206.529C206.2 43 205.953 42.9242 205.788 42.7725C205.623 42.6208 205.541 42.3717 205.541 42.025V39.9255H205.08V39.438H205.541V38.541H206.133V39.438H207.062V39.9255H206.133ZM209.04 43.0585C208.767 43.0585 208.522 43.013 208.305 42.922C208.089 42.8267 207.917 42.6967 207.792 42.532C207.666 42.363 207.597 42.1702 207.584 41.9535H208.195C208.212 42.1312 208.294 42.2763 208.442 42.389C208.593 42.5017 208.791 42.558 209.033 42.558C209.259 42.558 209.436 42.5082 209.566 42.4085C209.696 42.3088 209.761 42.1832 209.761 42.0315C209.761 41.8755 209.692 41.7607 209.553 41.687C209.415 41.609 209.2 41.5332 208.91 41.4595C208.645 41.3902 208.429 41.3208 208.26 41.2515C208.095 41.1778 207.952 41.0717 207.831 40.933C207.714 40.79 207.655 40.6037 207.655 40.374C207.655 40.192 207.709 40.0252 207.818 39.8735C207.926 39.7218 208.08 39.6027 208.279 39.516C208.479 39.425 208.706 39.3795 208.962 39.3795C209.356 39.3795 209.675 39.4792 209.917 39.6785C210.16 39.8778 210.29 40.1508 210.307 40.4975H209.716C209.703 40.3112 209.627 40.1617 209.488 40.049C209.354 39.9363 209.172 39.88 208.942 39.88C208.73 39.88 208.561 39.9255 208.435 40.0165C208.31 40.1075 208.247 40.2267 208.247 40.374C208.247 40.491 208.284 40.5885 208.357 40.6665C208.435 40.7402 208.531 40.8008 208.643 40.8485C208.76 40.8918 208.921 40.9417 209.124 40.998C209.38 41.0673 209.588 41.1367 209.748 41.206C209.909 41.271 210.045 41.3707 210.158 41.505C210.275 41.6393 210.335 41.8148 210.34 42.0315C210.34 42.2265 210.286 42.402 210.177 42.558C210.069 42.714 209.915 42.8375 209.716 42.9285C209.521 43.0152 209.295 43.0585 209.04 43.0585ZM211.363 43.039C211.251 43.039 211.155 43 211.077 42.922C210.999 42.844 210.96 42.7487 210.96 42.636C210.96 42.5233 210.999 42.428 211.077 42.35C211.155 42.272 211.251 42.233 211.363 42.233C211.472 42.233 211.563 42.272 211.636 42.35C211.714 42.428 211.753 42.5233 211.753 42.636C211.753 42.7487 211.714 42.844 211.636 42.922C211.563 43 211.472 43.039 211.363 43.039ZM11.6725 48.4695L10.197 51.2905V53H9.6055V51.2905L8.1235 48.4695H8.78L9.898 50.764L11.016 48.4695H11.6725ZM13.8499 53.0585C13.5162 53.0585 13.2129 52.9827 12.9399 52.831C12.6712 52.6793 12.4589 52.4648 12.3029 52.1875C12.1512 51.9058 12.0754 51.5808 12.0754 51.2125C12.0754 50.8485 12.1534 50.5278 12.3094 50.2505C12.4697 49.9688 12.6864 49.7543 12.9594 49.607C13.2324 49.4553 13.5379 49.3795 13.8759 49.3795C14.2139 49.3795 14.5194 49.4553 14.7924 49.607C15.0654 49.7543 15.2799 49.9667 15.4359 50.244C15.5962 50.5213 15.6764 50.8442 15.6764 51.2125C15.6764 51.5808 15.5941 51.9058 15.4294 52.1875C15.2691 52.4648 15.0502 52.6793 14.7729 52.831C14.4956 52.9827 14.1879 53.0585 13.8499 53.0585ZM13.8499 52.5385C14.0622 52.5385 14.2616 52.4887 14.4479 52.389C14.6342 52.2893 14.7837 52.1398 14.8964 51.9405C15.0134 51.7412 15.0719 51.4985 15.0719 51.2125C15.0719 50.9265 15.0156 50.6838 14.9029 50.4845C14.7902 50.2852 14.6429 50.1378 14.4609 50.0425C14.2789 49.9428 14.0817 49.893 13.8694 49.893C13.6527 49.893 13.4534 49.9428 13.2714 50.0425C13.0937 50.1378 12.9507 50.2852 12.8424 50.4845C12.7341 50.6838 12.6799 50.9265 12.6799 51.2125C12.6799 51.5028 12.7319 51.7477 12.8359 51.947C12.9442 52.1463 13.0872 52.2958 13.2649 52.3955C13.4426 52.4908 13.6376 52.5385 13.8499 52.5385ZM19.6131 49.438V53H19.0216V52.4735C18.9089 52.6555 18.7508 52.7985 18.5471 52.9025C18.3478 53.0022 18.1268 53.052 17.8841 53.052C17.6068 53.052 17.3576 52.9957 17.1366 52.883C16.9156 52.766 16.7401 52.5927 16.6101 52.363C16.4844 52.1333 16.4216 51.8538 16.4216 51.5245V49.438H17.0066V51.4465C17.0066 51.7975 17.0954 52.0683 17.2731 52.259C17.4508 52.4453 17.6934 52.5385 18.0011 52.5385C18.3174 52.5385 18.5666 52.441 18.7486 52.246C18.9306 52.051 19.0216 51.7672 19.0216 51.3945V49.438H19.6131ZM22.1237 51.2125C22.1237 50.8442 22.1974 50.5235 22.3447 50.2505C22.4921 49.9732 22.6957 49.7587 22.9557 49.607C23.2201 49.4553 23.5212 49.3795 23.8592 49.3795C24.2969 49.3795 24.6566 49.4857 24.9382 49.698C25.2242 49.9103 25.4127 50.205 25.5037 50.582H24.8667C24.8061 50.3653 24.6869 50.1942 24.5092 50.0685C24.3359 49.9428 24.1192 49.88 23.8592 49.88C23.5212 49.88 23.2482 49.997 23.0402 50.231C22.8322 50.4607 22.7282 50.7878 22.7282 51.2125C22.7282 51.6415 22.8322 51.973 23.0402 52.207C23.2482 52.441 23.5212 52.558 23.8592 52.558C24.1192 52.558 24.3359 52.4973 24.5092 52.376C24.6826 52.2547 24.8017 52.0813 24.8667 51.856H25.5037C25.4084 52.22 25.2177 52.5125 24.9317 52.7335C24.6457 52.9502 24.2882 53.0585 23.8592 53.0585C23.5212 53.0585 23.2201 52.9827 22.9557 52.831C22.6957 52.6793 22.4921 52.4648 22.3447 52.1875C22.1974 51.9102 22.1237 51.5852 22.1237 51.2125ZM26.072 51.206C26.072 50.842 26.1456 50.5235 26.293 50.2505C26.4403 49.9732 26.6418 49.7587 26.8975 49.607C27.1575 49.4553 27.4456 49.3795 27.762 49.3795C28.074 49.3795 28.3448 49.4467 28.5745 49.581C28.8041 49.7153 28.9753 49.8843 29.088 50.088V49.438H29.686V53H29.088V52.337C28.971 52.545 28.7955 52.7183 28.5615 52.857C28.3318 52.9913 28.0631 53.0585 27.7555 53.0585C27.4391 53.0585 27.1531 52.9805 26.8975 52.8245C26.6418 52.6685 26.4403 52.4497 26.293 52.168C26.1456 51.8863 26.072 51.5657 26.072 51.206ZM29.088 51.2125C29.088 50.9438 29.0338 50.7098 28.9255 50.5105C28.8171 50.3112 28.6698 50.1595 28.4835 50.0555C28.3015 49.9472 28.1 49.893 27.879 49.893C27.658 49.893 27.4565 49.945 27.2745 50.049C27.0925 50.153 26.9473 50.3047 26.839 50.504C26.7306 50.7033 26.6765 50.9373 26.6765 51.206C26.6765 51.479 26.7306 51.7173 26.839 51.921C26.9473 52.1203 27.0925 52.2742 27.2745 52.3825C27.4565 52.4865 27.658 52.5385 27.879 52.5385C28.1 52.5385 28.3015 52.4865 28.4835 52.3825C28.6698 52.2742 28.8171 52.1203 28.9255 51.921C29.0338 51.7173 29.088 51.4812 29.088 51.2125ZM32.4211 49.373C32.8544 49.373 33.2054 49.5052 33.4741 49.7695C33.7427 50.0295 33.8771 50.4065 33.8771 50.9005V53H33.2921V50.985C33.2921 50.6297 33.2032 50.3588 33.0256 50.1725C32.8479 49.9818 32.6052 49.8865 32.2976 49.8865C31.9856 49.8865 31.7364 49.984 31.5501 50.179C31.3681 50.374 31.2771 50.6578 31.2771 51.0305V53H30.6856V49.438H31.2771V49.945C31.3941 49.763 31.5522 49.6222 31.7516 49.5225C31.9552 49.4228 32.1784 49.373 32.4211 49.373ZM36.3552 51.2125C36.3552 50.8442 36.4289 50.5235 36.5762 50.2505C36.7235 49.9732 36.9272 49.7587 37.1872 49.607C37.4515 49.4553 37.7527 49.3795 38.0907 49.3795C38.5284 49.3795 38.888 49.4857 39.1697 49.698C39.4557 49.9103 39.6442 50.205 39.7352 50.582H39.0982C39.0375 50.3653 38.9184 50.1942 38.7407 50.0685C38.5674 49.9428 38.3507 49.88 38.0907 49.88C37.7527 49.88 37.4797 49.997 37.2717 50.231C37.0637 50.4607 36.9597 50.7878 36.9597 51.2125C36.9597 51.6415 37.0637 51.973 37.2717 52.207C37.4797 52.441 37.7527 52.558 38.0907 52.558C38.3507 52.558 38.5674 52.4973 38.7407 52.376C38.914 52.2547 39.0332 52.0813 39.0982 51.856H39.7352C39.6399 52.22 39.4492 52.5125 39.1632 52.7335C38.8772 52.9502 38.5197 53.0585 38.0907 53.0585C37.7527 53.0585 37.4515 52.9827 37.1872 52.831C36.9272 52.6793 36.7235 52.4648 36.5762 52.1875C36.4289 51.9102 36.3552 51.5852 36.3552 51.2125ZM42.2924 49.373C42.5611 49.373 42.8038 49.4315 43.0204 49.5485C43.2371 49.6612 43.4061 49.8323 43.5274 50.062C43.6531 50.2917 43.7159 50.5712 43.7159 50.9005V53H43.1309V50.985C43.1309 50.6297 43.0421 50.3588 42.8644 50.1725C42.6868 49.9818 42.4441 49.8865 42.1364 49.8865C41.8244 49.8865 41.5753 49.984 41.3889 50.179C41.2069 50.374 41.1159 50.6578 41.1159 51.0305V53H40.5244V48.19H41.1159V49.945C41.2329 49.763 41.3933 49.6222 41.5969 49.5225C41.8049 49.4228 42.0368 49.373 42.2924 49.373ZM46.2356 53.0585C45.902 53.0585 45.5986 52.9827 45.3256 52.831C45.057 52.6793 44.8446 52.4648 44.6886 52.1875C44.537 51.9058 44.4611 51.5808 44.4611 51.2125C44.4611 50.8485 44.5391 50.5278 44.6951 50.2505C44.8555 49.9688 45.0721 49.7543 45.3451 49.607C45.6181 49.4553 45.9236 49.3795 46.2616 49.3795C46.5996 49.3795 46.9051 49.4553 47.1781 49.607C47.4511 49.7543 47.6656 49.9667 47.8216 50.244C47.982 50.5213 48.0621 50.8442 48.0621 51.2125C48.0621 51.5808 47.9798 51.9058 47.8151 52.1875C47.6548 52.4648 47.436 52.6793 47.1586 52.831C46.8813 52.9827 46.5736 53.0585 46.2356 53.0585ZM46.2356 52.5385C46.448 52.5385 46.6473 52.4887 46.8336 52.389C47.02 52.2893 47.1695 52.1398 47.2821 51.9405C47.3991 51.7412 47.4576 51.4985 47.4576 51.2125C47.4576 50.9265 47.4013 50.6838 47.2886 50.4845C47.176 50.2852 47.0286 50.1378 46.8466 50.0425C46.6646 49.9428 46.4675 49.893 46.2551 49.893C46.0385 49.893 45.8391 49.9428 45.6571 50.0425C45.4795 50.1378 45.3365 50.2852 45.2281 50.4845C45.1198 50.6838 45.0656 50.9265 45.0656 51.2125C45.0656 51.5028 45.1176 51.7477 45.2216 51.947C45.33 52.1463 45.473 52.2958 45.6506 52.3955C45.8283 52.4908 46.0233 52.5385 46.2356 52.5385ZM50.3934 53.0585C50.0597 53.0585 49.7564 52.9827 49.4834 52.831C49.2147 52.6793 49.0024 52.4648 48.8464 52.1875C48.6947 51.9058 48.6189 51.5808 48.6189 51.2125C48.6189 50.8485 48.6969 50.5278 48.8529 50.2505C49.0132 49.9688 49.2299 49.7543 49.5029 49.607C49.7759 49.4553 50.0814 49.3795 50.4194 49.3795C50.7574 49.3795 51.0629 49.4553 51.3359 49.607C51.6089 49.7543 51.8234 49.9667 51.9794 50.244C52.1397 50.5213 52.2199 50.8442 52.2199 51.2125C52.2199 51.5808 52.1375 51.9058 51.9729 52.1875C51.8125 52.4648 51.5937 52.6793 51.3164 52.831C51.039 52.9827 50.7314 53.0585 50.3934 53.0585ZM50.3934 52.5385C50.6057 52.5385 50.805 52.4887 50.9914 52.389C51.1777 52.2893 51.3272 52.1398 51.4399 51.9405C51.5569 51.7412 51.6154 51.4985 51.6154 51.2125C51.6154 50.9265 51.559 50.6838 51.4464 50.4845C51.3337 50.2852 51.1864 50.1378 51.0044 50.0425C50.8224 49.9428 50.6252 49.893 50.4129 49.893C50.1962 49.893 49.9969 49.9428 49.8149 50.0425C49.6372 50.1378 49.4942 50.2852 49.3859 50.4845C49.2775 50.6838 49.2234 50.9265 49.2234 51.2125C49.2234 51.5028 49.2754 51.7477 49.3794 51.947C49.4877 52.1463 49.6307 52.2958 49.8084 52.3955C49.986 52.4908 50.181 52.5385 50.3934 52.5385ZM54.2586 53.0585C53.9856 53.0585 53.7407 53.013 53.5241 52.922C53.3074 52.8267 53.1362 52.6967 53.0106 52.532C52.8849 52.363 52.8156 52.1702 52.8026 51.9535H53.4136C53.4309 52.1312 53.5132 52.2763 53.6606 52.389C53.8122 52.5017 54.0094 52.558 54.2521 52.558C54.4774 52.558 54.6551 52.5082 54.7851 52.4085C54.9151 52.3088 54.9801 52.1832 54.9801 52.0315C54.9801 51.8755 54.9107 51.7607 54.7721 51.687C54.6334 51.609 54.4189 51.5332 54.1286 51.4595C53.8642 51.3902 53.6476 51.3208 53.4786 51.2515C53.3139 51.1778 53.1709 51.0717 53.0496 50.933C52.9326 50.79 52.8741 50.6037 52.8741 50.374C52.8741 50.192 52.9282 50.0252 53.0366 49.8735C53.1449 49.7218 53.2987 49.6027 53.4981 49.516C53.6974 49.425 53.9249 49.3795 54.1806 49.3795C54.5749 49.3795 54.8934 49.4792 55.1361 49.6785C55.3787 49.8778 55.5087 50.1508 55.5261 50.4975H54.9346C54.9216 50.3112 54.8457 50.1617 54.7071 50.049C54.5727 49.9363 54.3907 49.88 54.1611 49.88C53.9487 49.88 53.7797 49.9255 53.6541 50.0165C53.5284 50.1075 53.4656 50.2267 53.4656 50.374C53.4656 50.491 53.5024 50.5885 53.5761 50.6665C53.6541 50.7402 53.7494 50.8008 53.8621 50.8485C53.9791 50.8918 54.1394 50.9417 54.3431 50.998C54.5987 51.0673 54.8067 51.1367 54.9671 51.206C55.1274 51.271 55.2639 51.3707 55.3766 51.505C55.4936 51.6393 55.5542 51.8148 55.5586 52.0315C55.5586 52.2265 55.5044 52.402 55.3961 52.558C55.2877 52.714 55.1339 52.8375 54.9346 52.9285C54.7396 53.0152 54.5142 53.0585 54.2586 53.0585ZM59.6436 51.0825C59.6436 51.1952 59.6371 51.3143 59.6241 51.44H56.7771C56.7987 51.791 56.9179 52.0662 57.1346 52.2655C57.3556 52.4605 57.6221 52.558 57.9341 52.558C58.1897 52.558 58.4021 52.4995 58.5711 52.3825C58.7444 52.2612 58.8657 52.1008 58.9351 51.9015H59.5721C59.4767 52.2438 59.2861 52.5233 59.0001 52.74C58.7141 52.9523 58.3587 53.0585 57.9341 53.0585C57.5961 53.0585 57.2927 52.9827 57.0241 52.831C56.7597 52.6793 56.5517 52.4648 56.4001 52.1875C56.2484 51.9058 56.1726 51.5808 56.1726 51.2125C56.1726 50.8442 56.2462 50.5213 56.3936 50.244C56.5409 49.9667 56.7467 49.7543 57.0111 49.607C57.2797 49.4553 57.5874 49.3795 57.9341 49.3795C58.2721 49.3795 58.5711 49.4532 58.8311 49.6005C59.0911 49.7478 59.2904 49.9515 59.4291 50.2115C59.5721 50.4672 59.6436 50.7575 59.6436 51.0825ZM59.0326 50.959C59.0326 50.7337 58.9827 50.5408 58.8831 50.3805C58.7834 50.2158 58.6469 50.0923 58.4736 50.01C58.3046 49.9233 58.1161 49.88 57.9081 49.88C57.6091 49.88 57.3534 49.9753 57.1411 50.166C56.9331 50.3567 56.8139 50.621 56.7836 50.959H59.0326ZM62.8787 49.9255V52.025C62.8787 52.1983 62.9156 52.3218 62.9892 52.3955C63.0629 52.4648 63.1907 52.4995 63.3727 52.4995H63.8082V53H63.2752C62.9459 53 62.6989 52.9242 62.5342 52.7725C62.3696 52.6208 62.2872 52.3717 62.2872 52.025V49.9255H61.8257V49.438H62.2872V48.541H62.8787V49.438H63.8082V49.9255H62.8787ZM66.0784 53.0585C65.7447 53.0585 65.4414 52.9827 65.1684 52.831C64.8997 52.6793 64.6874 52.4648 64.5314 52.1875C64.3797 51.9058 64.3039 51.5808 64.3039 51.2125C64.3039 50.8485 64.3819 50.5278 64.5379 50.2505C64.6982 49.9688 64.9149 49.7543 65.1879 49.607C65.4609 49.4553 65.7664 49.3795 66.1044 49.3795C66.4424 49.3795 66.7479 49.4553 67.0209 49.607C67.2939 49.7543 67.5084 49.9667 67.6644 50.244C67.8247 50.5213 67.9049 50.8442 67.9049 51.2125C67.9049 51.5808 67.8226 51.9058 67.6579 52.1875C67.4976 52.4648 67.2787 52.6793 67.0014 52.831C66.7241 52.9827 66.4164 53.0585 66.0784 53.0585ZM66.0784 52.5385C66.2907 52.5385 66.4901 52.4887 66.6764 52.389C66.8627 52.2893 67.0122 52.1398 67.1249 51.9405C67.2419 51.7412 67.3004 51.4985 67.3004 51.2125C67.3004 50.9265 67.2441 50.6838 67.1314 50.4845C67.0187 50.2852 66.8714 50.1378 66.6894 50.0425C66.5074 49.9428 66.3102 49.893 66.0979 49.893C65.8812 49.893 65.6819 49.9428 65.4999 50.0425C65.3222 50.1378 65.1792 50.2852 65.0709 50.4845C64.9626 50.6838 64.9084 50.9265 64.9084 51.2125C64.9084 51.5028 64.9604 51.7477 65.0644 51.947C65.1727 52.1463 65.3157 52.2958 65.4934 52.3955C65.6711 52.4908 65.8661 52.5385 66.0784 52.5385ZM71.007 50.0165C71.111 49.8128 71.2584 49.6547 71.449 49.542C71.644 49.4293 71.8802 49.373 72.1575 49.373V49.984H72.0015C71.3385 49.984 71.007 50.3437 71.007 51.063V53H70.4155V49.438H71.007V50.0165ZM76.0903 51.0825C76.0903 51.1952 76.0838 51.3143 76.0708 51.44H73.2238C73.2455 51.791 73.3647 52.0662 73.5813 52.2655C73.8023 52.4605 74.0688 52.558 74.3808 52.558C74.6365 52.558 74.8488 52.4995 75.0178 52.3825C75.1912 52.2612 75.3125 52.1008 75.3818 51.9015H76.0188C75.9235 52.2438 75.7328 52.5233 75.4468 52.74C75.1608 52.9523 74.8055 53.0585 74.3808 53.0585C74.0428 53.0585 73.7395 52.9827 73.4708 52.831C73.2065 52.6793 72.9985 52.4648 72.8468 52.1875C72.6952 51.9058 72.6193 51.5808 72.6193 51.2125C72.6193 50.8442 72.693 50.5213 72.8403 50.244C72.9877 49.9667 73.1935 49.7543 73.4578 49.607C73.7265 49.4553 74.0342 49.3795 74.3808 49.3795C74.7188 49.3795 75.0178 49.4532 75.2778 49.6005C75.5378 49.7478 75.7372 49.9515 75.8758 50.2115C76.0188 50.4672 76.0903 50.7575 76.0903 51.0825ZM75.4793 50.959C75.4793 50.7337 75.4295 50.5408 75.3298 50.3805C75.2302 50.2158 75.0937 50.0923 74.9203 50.01C74.7513 49.9233 74.5628 49.88 74.3548 49.88C74.0558 49.88 73.8002 49.9753 73.5878 50.166C73.3798 50.3567 73.2607 50.621 73.2303 50.959H75.4793ZM78.3206 49.9255H77.5731V53H76.9816V49.9255H76.5201V49.438H76.9816V49.1845C76.9816 48.7858 77.0834 48.4955 77.2871 48.3135C77.4951 48.1272 77.8266 48.034 78.2816 48.034V48.528C78.0216 48.528 77.8374 48.58 77.7291 48.684C77.6251 48.7837 77.5731 48.9505 77.5731 49.1845V49.438H78.3206V49.9255ZM79.3158 48.8595C79.2031 48.8595 79.1078 48.8205 79.0298 48.7425C78.9518 48.6645 78.9128 48.5692 78.9128 48.4565C78.9128 48.3438 78.9518 48.2485 79.0298 48.1705C79.1078 48.0925 79.2031 48.0535 79.3158 48.0535C79.4241 48.0535 79.5151 48.0925 79.5888 48.1705C79.6668 48.2485 79.7058 48.3438 79.7058 48.4565C79.7058 48.5692 79.6668 48.6645 79.5888 48.7425C79.5151 48.8205 79.4241 48.8595 79.3158 48.8595ZM79.6018 49.438V53H79.0103V49.438H79.6018ZM82.3454 49.373C82.7787 49.373 83.1297 49.5052 83.3984 49.7695C83.667 50.0295 83.8014 50.4065 83.8014 50.9005V53H83.2164V50.985C83.2164 50.6297 83.1275 50.3588 82.9499 50.1725C82.7722 49.9818 82.5295 49.8865 82.2219 49.8865C81.9099 49.8865 81.6607 49.984 81.4744 50.179C81.2924 50.374 81.2014 50.6578 81.2014 51.0305V53H80.6099V49.438H81.2014V49.945C81.3184 49.763 81.4765 49.6222 81.6759 49.5225C81.8795 49.4228 82.1027 49.373 82.3454 49.373ZM88.0176 51.0825C88.0176 51.1952 88.0111 51.3143 87.9981 51.44H85.1511C85.1728 51.791 85.2919 52.0662 85.5086 52.2655C85.7296 52.4605 85.9961 52.558 86.3081 52.558C86.5638 52.558 86.7761 52.4995 86.9451 52.3825C87.1184 52.2612 87.2398 52.1008 87.3091 51.9015H87.9461C87.8508 52.2438 87.6601 52.5233 87.3741 52.74C87.0881 52.9523 86.7328 53.0585 86.3081 53.0585C85.9701 53.0585 85.6668 52.9827 85.3981 52.831C85.1338 52.6793 84.9258 52.4648 84.7741 52.1875C84.6224 51.9058 84.5466 51.5808 84.5466 51.2125C84.5466 50.8442 84.6203 50.5213 84.7676 50.244C84.9149 49.9667 85.1208 49.7543 85.3851 49.607C85.6538 49.4553 85.9614 49.3795 86.3081 49.3795C86.6461 49.3795 86.9451 49.4532 87.2051 49.6005C87.4651 49.7478 87.6644 49.9515 87.8031 50.2115C87.9461 50.4672 88.0176 50.7575 88.0176 51.0825ZM87.4066 50.959C87.4066 50.7337 87.3568 50.5408 87.2571 50.3805C87.1574 50.2158 87.0209 50.0923 86.8476 50.01C86.6786 49.9233 86.4901 49.88 86.2821 49.88C85.9831 49.88 85.7274 49.9753 85.5151 50.166C85.3071 50.3567 85.1879 50.621 85.1576 50.959H87.4066ZM91.2528 49.9255V52.025C91.2528 52.1983 91.2896 52.3218 91.3633 52.3955C91.4369 52.4648 91.5648 52.4995 91.7468 52.4995H92.1823V53H91.6493C91.3199 53 91.0729 52.9242 90.9083 52.7725C90.7436 52.6208 90.6613 52.3717 90.6613 52.025V49.9255H90.1998V49.438H90.6613V48.541H91.2528V49.438H92.1823V49.9255H91.2528ZM94.6669 49.373C94.9356 49.373 95.1783 49.4315 95.3949 49.5485C95.6116 49.6612 95.7806 49.8323 95.9019 50.062C96.0276 50.2917 96.0904 50.5712 96.0904 50.9005V53H95.5054V50.985C95.5054 50.6297 95.4166 50.3588 95.2389 50.1725C95.0613 49.9818 94.8186 49.8865 94.5109 49.8865C94.1989 49.8865 93.9498 49.984 93.7634 50.179C93.5814 50.374 93.4904 50.6578 93.4904 51.0305V53H92.8989V48.19H93.4904V49.945C93.6074 49.763 93.7678 49.6222 93.9714 49.5225C94.1794 49.4228 94.4113 49.373 94.6669 49.373ZM100.307 51.0825C100.307 51.1952 100.3 51.3143 100.287 51.44H97.4402C97.4618 51.791 97.581 52.0662 97.7977 52.2655C98.0187 52.4605 98.2852 52.558 98.5972 52.558C98.8528 52.558 99.0652 52.4995 99.2342 52.3825C99.4075 52.2612 99.5288 52.1008 99.5982 51.9015H100.235C100.14 52.2438 99.9492 52.5233 99.6632 52.74C99.3772 52.9523 99.0218 53.0585 98.5972 53.0585C98.2592 53.0585 97.9558 52.9827 97.6872 52.831C97.4228 52.6793 97.2148 52.4648 97.0632 52.1875C96.9115 51.9058 96.8357 51.5808 96.8357 51.2125C96.8357 50.8442 96.9093 50.5213 97.0567 50.244C97.204 49.9667 97.4098 49.7543 97.6742 49.607C97.9428 49.4553 98.2505 49.3795 98.5972 49.3795C98.9352 49.3795 99.2342 49.4532 99.4942 49.6005C99.7542 49.7478 99.9535 49.9515 100.092 50.2115C100.235 50.4672 100.307 50.7575 100.307 51.0825ZM99.6957 50.959C99.6957 50.7337 99.6458 50.5408 99.5462 50.3805C99.4465 50.2158 99.31 50.0923 99.1367 50.01C98.9677 49.9233 98.7792 49.88 98.5712 49.88C98.2722 49.88 98.0165 49.9753 97.8042 50.166C97.5962 50.3567 97.477 50.621 97.4467 50.959H99.6957ZM104.081 53.0585C103.808 53.0585 103.563 53.013 103.347 52.922C103.13 52.8267 102.959 52.6967 102.833 52.532C102.708 52.363 102.638 52.1702 102.625 51.9535H103.236C103.254 52.1312 103.336 52.2763 103.483 52.389C103.635 52.5017 103.832 52.558 104.075 52.558C104.3 52.558 104.478 52.5082 104.608 52.4085C104.738 52.3088 104.803 52.1832 104.803 52.0315C104.803 51.8755 104.733 51.7607 104.595 51.687C104.456 51.609 104.242 51.5332 103.951 51.4595C103.687 51.3902 103.47 51.3208 103.301 51.2515C103.137 51.1778 102.994 51.0717 102.872 50.933C102.755 50.79 102.697 50.6037 102.697 50.374C102.697 50.192 102.751 50.0252 102.859 49.8735C102.968 49.7218 103.121 49.6027 103.321 49.516C103.52 49.425 103.748 49.3795 104.003 49.3795C104.398 49.3795 104.716 49.4792 104.959 49.6785C105.201 49.8778 105.331 50.1508 105.349 50.4975H104.757C104.744 50.3112 104.668 50.1617 104.53 50.049C104.395 49.9363 104.213 49.88 103.984 49.88C103.771 49.88 103.602 49.9255 103.477 50.0165C103.351 50.1075 103.288 50.2267 103.288 50.374C103.288 50.491 103.325 50.5885 103.399 50.6665C103.477 50.7402 103.572 50.8008 103.685 50.8485C103.802 50.8918 103.962 50.9417 104.166 50.998C104.421 51.0673 104.629 51.1367 104.79 51.206C104.95 51.271 105.087 51.3707 105.199 51.505C105.316 51.6393 105.377 51.8148 105.381 52.0315C105.381 52.2265 105.327 52.402 105.219 52.558C105.11 52.714 104.957 52.8375 104.757 52.9285C104.562 53.0152 104.337 53.0585 104.081 53.0585ZM109.466 51.0825C109.466 51.1952 109.46 51.3143 109.447 51.44H106.6C106.621 51.791 106.741 52.0662 106.957 52.2655C107.178 52.4605 107.445 52.558 107.757 52.558C108.012 52.558 108.225 52.4995 108.394 52.3825C108.567 52.2612 108.688 52.1008 108.758 51.9015H109.395C109.299 52.2438 109.109 52.5233 108.823 52.74C108.537 52.9523 108.181 53.0585 107.757 53.0585C107.419 53.0585 107.115 52.9827 106.847 52.831C106.582 52.6793 106.374 52.4648 106.223 52.1875C106.071 51.9058 105.995 51.5808 105.995 51.2125C105.995 50.8442 106.069 50.5213 106.216 50.244C106.364 49.9667 106.569 49.7543 106.834 49.607C107.102 49.4553 107.41 49.3795 107.757 49.3795C108.095 49.3795 108.394 49.4532 108.654 49.6005C108.914 49.7478 109.113 49.9515 109.252 50.2115C109.395 50.4672 109.466 50.7575 109.466 51.0825ZM108.855 50.959C108.855 50.7337 108.805 50.5408 108.706 50.3805C108.606 50.2158 108.47 50.0923 108.296 50.01C108.127 49.9233 107.939 49.88 107.731 49.88C107.432 49.88 107.176 49.9753 106.964 50.166C106.756 50.3567 106.637 50.621 106.606 50.959H108.855ZM110.026 51.206C110.026 50.842 110.1 50.5235 110.247 50.2505C110.394 49.9732 110.596 49.7587 110.852 49.607C111.112 49.4553 111.4 49.3795 111.716 49.3795C112.028 49.3795 112.299 49.4467 112.529 49.581C112.758 49.7153 112.929 49.8843 113.042 50.088V49.438H113.64V53H113.042V52.337C112.925 52.545 112.75 52.7183 112.516 52.857C112.286 52.9913 112.017 53.0585 111.71 53.0585C111.393 53.0585 111.107 52.9805 110.852 52.8245C110.596 52.6685 110.394 52.4497 110.247 52.168C110.1 51.8863 110.026 51.5657 110.026 51.206ZM113.042 51.2125C113.042 50.9438 112.988 50.7098 112.88 50.5105C112.771 50.3112 112.624 50.1595 112.438 50.0555C112.256 49.9472 112.054 49.893 111.833 49.893C111.612 49.893 111.411 49.945 111.229 50.049C111.047 50.153 110.901 50.3047 110.793 50.504C110.685 50.7033 110.631 50.9373 110.631 51.206C110.631 51.479 110.685 51.7173 110.793 51.921C110.901 52.1203 111.047 52.2742 111.229 52.3825C111.411 52.4865 111.612 52.5385 111.833 52.5385C112.054 52.5385 112.256 52.4865 112.438 52.3825C112.624 52.2742 112.771 52.1203 112.88 51.921C112.988 51.7173 113.042 51.4812 113.042 51.2125ZM115.231 50.0165C115.335 49.8128 115.482 49.6547 115.673 49.542C115.868 49.4293 116.104 49.373 116.382 49.373V49.984H116.226C115.563 49.984 115.231 50.3437 115.231 51.063V53H114.64V49.438H115.231V50.0165ZM116.843 51.2125C116.843 50.8442 116.917 50.5235 117.064 50.2505C117.212 49.9732 117.415 49.7587 117.675 49.607C117.94 49.4553 118.241 49.3795 118.579 49.3795C119.017 49.3795 119.376 49.4857 119.658 49.698C119.944 49.9103 120.132 50.205 120.223 50.582H119.586C119.526 50.3653 119.407 50.1942 119.229 50.0685C119.056 49.9428 118.839 49.88 118.579 49.88C118.241 49.88 117.968 49.997 117.76 50.231C117.552 50.4607 117.448 50.7878 117.448 51.2125C117.448 51.6415 117.552 51.973 117.76 52.207C117.968 52.441 118.241 52.558 118.579 52.558C118.839 52.558 119.056 52.4973 119.229 52.376C119.402 52.2547 119.521 52.0813 119.586 51.856H120.223C120.128 52.22 119.937 52.5125 119.651 52.7335C119.365 52.9502 119.008 53.0585 118.579 53.0585C118.241 53.0585 117.94 52.9827 117.675 52.831C117.415 52.6793 117.212 52.4648 117.064 52.1875C116.917 51.9102 116.843 51.5852 116.843 51.2125ZM122.781 49.373C123.049 49.373 123.292 49.4315 123.509 49.5485C123.725 49.6612 123.894 49.8323 124.016 50.062C124.141 50.2917 124.204 50.5712 124.204 50.9005V53H123.619V50.985C123.619 50.6297 123.53 50.3588 123.353 50.1725C123.175 49.9818 122.932 49.8865 122.625 49.8865C122.313 49.8865 122.064 49.984 121.877 50.179C121.695 50.374 121.604 50.6578 121.604 51.0305V53H121.013V48.19H121.604V49.945C121.721 49.763 121.882 49.6222 122.085 49.5225C122.293 49.4228 122.525 49.373 122.781 49.373ZM127.495 50.0165C127.599 49.8128 127.746 49.6547 127.937 49.542C128.132 49.4293 128.368 49.373 128.645 49.373V49.984H128.489C127.826 49.984 127.495 50.3437 127.495 51.063V53H126.903V49.438H127.495V50.0165ZM132.578 51.0825C132.578 51.1952 132.572 51.3143 132.559 51.44H129.712C129.733 51.791 129.852 52.0662 130.069 52.2655C130.29 52.4605 130.557 52.558 130.869 52.558C131.124 52.558 131.337 52.4995 131.506 52.3825C131.679 52.2612 131.8 52.1008 131.87 51.9015H132.507C132.411 52.2438 132.221 52.5233 131.935 52.74C131.649 52.9523 131.293 53.0585 130.869 53.0585C130.531 53.0585 130.227 52.9827 129.959 52.831C129.694 52.6793 129.486 52.4648 129.335 52.1875C129.183 51.9058 129.107 51.5808 129.107 51.2125C129.107 50.8442 129.181 50.5213 129.328 50.244C129.475 49.9667 129.681 49.7543 129.946 49.607C130.214 49.4553 130.522 49.3795 130.869 49.3795C131.207 49.3795 131.506 49.4532 131.766 49.6005C132.026 49.7478 132.225 49.9515 132.364 50.2115C132.507 50.4672 132.578 50.7575 132.578 51.0825ZM131.967 50.959C131.967 50.7337 131.917 50.5408 131.818 50.3805C131.718 50.2158 131.581 50.0923 131.408 50.01C131.239 49.9233 131.051 49.88 130.843 49.88C130.544 49.88 130.288 49.9753 130.076 50.166C129.868 50.3567 129.748 50.621 129.718 50.959H131.967ZM134.62 53.0585C134.347 53.0585 134.102 53.013 133.885 52.922C133.669 52.8267 133.498 52.6967 133.372 52.532C133.246 52.363 133.177 52.1702 133.164 51.9535H133.775C133.792 52.1312 133.875 52.2763 134.022 52.389C134.174 52.5017 134.371 52.558 134.613 52.558C134.839 52.558 135.016 52.5082 135.146 52.4085C135.276 52.3088 135.341 52.1832 135.341 52.0315C135.341 51.8755 135.272 51.7607 135.133 51.687C134.995 51.609 134.78 51.5332 134.49 51.4595C134.226 51.3902 134.009 51.3208 133.84 51.2515C133.675 51.1778 133.532 51.0717 133.411 50.933C133.294 50.79 133.235 50.6037 133.235 50.374C133.235 50.192 133.29 50.0252 133.398 49.8735C133.506 49.7218 133.66 49.6027 133.859 49.516C134.059 49.425 134.286 49.3795 134.542 49.3795C134.936 49.3795 135.255 49.4792 135.497 49.6785C135.74 49.8778 135.87 50.1508 135.887 50.4975H135.296C135.283 50.3112 135.207 50.1617 135.068 50.049C134.934 49.9363 134.752 49.88 134.522 49.88C134.31 49.88 134.141 49.9255 134.015 50.0165C133.89 50.1075 133.827 50.2267 133.827 50.374C133.827 50.491 133.864 50.5885 133.937 50.6665C134.015 50.7402 134.111 50.8008 134.223 50.8485C134.34 50.8918 134.501 50.9417 134.704 50.998C134.96 51.0673 135.168 51.1367 135.328 51.206C135.489 51.271 135.625 51.3707 135.738 51.505C135.855 51.6393 135.916 51.8148 135.92 52.0315C135.92 52.2265 135.866 52.402 135.757 52.558C135.649 52.714 135.495 52.8375 135.296 52.9285C135.101 53.0152 134.876 53.0585 134.62 53.0585ZM139.914 49.438V53H139.322V52.4735C139.21 52.6555 139.052 52.7985 138.848 52.9025C138.649 53.0022 138.428 53.052 138.185 53.052C137.908 53.052 137.658 52.9957 137.437 52.883C137.216 52.766 137.041 52.5927 136.911 52.363C136.785 52.1333 136.722 51.8538 136.722 51.5245V49.438H137.307V51.4465C137.307 51.7975 137.396 52.0683 137.574 52.259C137.752 52.4453 137.994 52.5385 138.302 52.5385C138.618 52.5385 138.867 52.441 139.049 52.246C139.231 52.051 139.322 51.7672 139.322 51.3945V49.438H139.914ZM141.504 48.19V53H140.913V48.19H141.504ZM143.234 49.9255V52.025C143.234 52.1983 143.271 52.3218 143.344 52.3955C143.418 52.4648 143.546 52.4995 143.728 52.4995H144.163V53H143.63C143.301 53 143.054 52.9242 142.889 52.7725C142.725 52.6208 142.642 52.3717 142.642 52.025V49.9255H142.181V49.438H142.642V48.541H143.234V49.438H144.163V49.9255H143.234ZM146.141 53.0585C145.868 53.0585 145.623 53.013 145.406 52.922C145.19 52.8267 145.019 52.6967 144.893 52.532C144.767 52.363 144.698 52.1702 144.685 51.9535H145.296C145.313 52.1312 145.396 52.2763 145.543 52.389C145.695 52.5017 145.892 52.558 146.134 52.558C146.36 52.558 146.537 52.5082 146.667 52.4085C146.797 52.3088 146.862 52.1832 146.862 52.0315C146.862 51.8755 146.793 51.7607 146.654 51.687C146.516 51.609 146.301 51.5332 146.011 51.4595C145.747 51.3902 145.53 51.3208 145.361 51.2515C145.196 51.1778 145.053 51.0717 144.932 50.933C144.815 50.79 144.756 50.6037 144.756 50.374C144.756 50.192 144.811 50.0252 144.919 49.8735C145.027 49.7218 145.181 49.6027 145.38 49.516C145.58 49.425 145.807 49.3795 146.063 49.3795C146.457 49.3795 146.776 49.4792 147.018 49.6785C147.261 49.8778 147.391 50.1508 147.408 50.4975H146.817C146.804 50.3112 146.728 50.1617 146.589 50.049C146.455 49.9363 146.273 49.88 146.043 49.88C145.831 49.88 145.662 49.9255 145.536 50.0165C145.411 50.1075 145.348 50.2267 145.348 50.374C145.348 50.491 145.385 50.5885 145.458 50.6665C145.536 50.7402 145.632 50.8008 145.744 50.8485C145.861 50.8918 146.022 50.9417 146.225 50.998C146.481 51.0673 146.689 51.1367 146.849 51.206C147.01 51.271 147.146 51.3707 147.259 51.505C147.376 51.6393 147.437 51.8148 147.441 52.0315C147.441 52.2265 147.387 52.402 147.278 52.558C147.17 52.714 147.016 52.8375 146.817 52.9285C146.622 53.0152 146.397 53.0585 146.141 53.0585ZM154.754 49.438L153.642 53H153.031L152.173 50.1725L151.315 53H150.704L149.586 49.438H150.191L151.01 52.428L151.894 49.438H152.498L153.363 52.4345L154.169 49.438H154.754ZM155.646 48.8595C155.534 48.8595 155.438 48.8205 155.36 48.7425C155.282 48.6645 155.243 48.5692 155.243 48.4565C155.243 48.3438 155.282 48.2485 155.36 48.1705C155.438 48.0925 155.534 48.0535 155.646 48.0535C155.755 48.0535 155.846 48.0925 155.919 48.1705C155.997 48.2485 156.036 48.3438 156.036 48.4565C156.036 48.5692 155.997 48.6645 155.919 48.7425C155.846 48.8205 155.755 48.8595 155.646 48.8595ZM155.932 49.438V53H155.341V49.438H155.932ZM157.662 49.9255V52.025C157.662 52.1983 157.699 52.3218 157.772 52.3955C157.846 52.4648 157.974 52.4995 158.156 52.4995H158.591V53H158.058C157.729 53 157.482 52.9242 157.317 52.7725C157.153 52.6208 157.07 52.3717 157.07 52.025V49.9255H156.609V49.438H157.07V48.541H157.662V49.438H158.591V49.9255H157.662ZM161.076 49.373C161.345 49.373 161.587 49.4315 161.804 49.5485C162.021 49.6612 162.19 49.8323 162.311 50.062C162.437 50.2917 162.5 50.5712 162.5 50.9005V53H161.915V50.985C161.915 50.6297 161.826 50.3588 161.648 50.1725C161.47 49.9818 161.228 49.8865 160.92 49.8865C160.608 49.8865 160.359 49.984 160.173 50.179C159.991 50.374 159.9 50.6578 159.9 51.0305V53H159.308V48.19H159.9V49.945C160.017 49.763 160.177 49.6222 160.381 49.5225C160.589 49.4228 160.82 49.373 161.076 49.373ZM164.978 51.2125C164.978 50.8442 165.051 50.5235 165.199 50.2505C165.346 49.9732 165.55 49.7587 165.81 49.607C166.074 49.4553 166.375 49.3795 166.713 49.3795C167.151 49.3795 167.511 49.4857 167.792 49.698C168.078 49.9103 168.267 50.205 168.358 50.582H167.721C167.66 50.3653 167.541 50.1942 167.363 50.0685C167.19 49.9428 166.973 49.88 166.713 49.88C166.375 49.88 166.102 49.997 165.894 50.231C165.686 50.4607 165.582 50.7878 165.582 51.2125C165.582 51.6415 165.686 51.973 165.894 52.207C166.102 52.441 166.375 52.558 166.713 52.558C166.973 52.558 167.19 52.4973 167.363 52.376C167.537 52.2547 167.656 52.0813 167.721 51.856H168.358C168.262 52.22 168.072 52.5125 167.786 52.7335C167.5 52.9502 167.142 53.0585 166.713 53.0585C166.375 53.0585 166.074 52.9827 165.81 52.831C165.55 52.6793 165.346 52.4648 165.199 52.1875C165.051 51.9102 164.978 51.5852 164.978 51.2125ZM169.452 48.8595C169.34 48.8595 169.244 48.8205 169.166 48.7425C169.088 48.6645 169.049 48.5692 169.049 48.4565C169.049 48.3438 169.088 48.2485 169.166 48.1705C169.244 48.0925 169.34 48.0535 169.452 48.0535C169.561 48.0535 169.652 48.0925 169.725 48.1705C169.803 48.2485 169.842 48.3438 169.842 48.4565C169.842 48.5692 169.803 48.6645 169.725 48.7425C169.652 48.8205 169.561 48.8595 169.452 48.8595ZM169.738 49.438V53H169.147V49.438H169.738ZM171.468 49.9255V52.025C171.468 52.1983 171.505 52.3218 171.579 52.3955C171.652 52.4648 171.78 52.4995 171.962 52.4995H172.398V53H171.865C171.535 53 171.288 52.9242 171.124 52.7725C170.959 52.6208 170.877 52.3717 170.877 52.025V49.9255H170.415V49.438H170.877V48.541H171.468V49.438H172.398V49.9255H171.468ZM176.182 49.438L174.037 54.677H173.426L174.128 52.961L172.692 49.438H173.348L174.466 52.324L175.571 49.438H176.182ZM180.245 49.373C180.679 49.373 181.03 49.5052 181.298 49.7695C181.567 50.0295 181.701 50.4065 181.701 50.9005V53H181.116V50.985C181.116 50.6297 181.027 50.3588 180.85 50.1725C180.672 49.9818 180.429 49.8865 180.122 49.8865C179.81 49.8865 179.561 49.984 179.374 50.179C179.192 50.374 179.101 50.6578 179.101 51.0305V53H178.51V49.438H179.101V49.945C179.218 49.763 179.376 49.6222 179.576 49.5225C179.779 49.4228 180.003 49.373 180.245 49.373ZM182.446 51.206C182.446 50.842 182.52 50.5235 182.667 50.2505C182.815 49.9732 183.016 49.7587 183.272 49.607C183.532 49.4553 183.82 49.3795 184.136 49.3795C184.448 49.3795 184.719 49.4467 184.949 49.581C185.179 49.7153 185.35 49.8843 185.462 50.088V49.438H186.06V53H185.462V52.337C185.345 52.545 185.17 52.7183 184.936 52.857C184.706 52.9913 184.438 53.0585 184.13 53.0585C183.814 53.0585 183.528 52.9805 183.272 52.8245C183.016 52.6685 182.815 52.4497 182.667 52.168C182.52 51.8863 182.446 51.5657 182.446 51.206ZM185.462 51.2125C185.462 50.9438 185.408 50.7098 185.3 50.5105C185.192 50.3112 185.044 50.1595 184.858 50.0555C184.676 49.9472 184.474 49.893 184.253 49.893C184.032 49.893 183.831 49.945 183.649 50.049C183.467 50.153 183.322 50.3047 183.213 50.504C183.105 50.7033 183.051 50.9373 183.051 51.206C183.051 51.479 183.105 51.7173 183.213 51.921C183.322 52.1203 183.467 52.2742 183.649 52.3825C183.831 52.4865 184.032 52.5385 184.253 52.5385C184.474 52.5385 184.676 52.4865 184.858 52.3825C185.044 52.2742 185.192 52.1203 185.3 51.921C185.408 51.7173 185.462 51.4812 185.462 51.2125ZM191.344 49.373C191.621 49.373 191.868 49.4315 192.085 49.5485C192.301 49.6612 192.472 49.8323 192.598 50.062C192.724 50.2917 192.787 50.5712 192.787 50.9005V53H192.202V50.985C192.202 50.6297 192.113 50.3588 191.935 50.1725C191.762 49.9818 191.526 49.8865 191.227 49.8865C190.919 49.8865 190.674 49.9862 190.492 50.1855C190.31 50.3805 190.219 50.6643 190.219 51.037V53H189.634V50.985C189.634 50.6297 189.545 50.3588 189.368 50.1725C189.194 49.9818 188.958 49.8865 188.659 49.8865C188.351 49.8865 188.107 49.9862 187.925 50.1855C187.743 50.3805 187.652 50.6643 187.652 51.037V53H187.06V49.438H187.652V49.9515C187.769 49.7652 187.925 49.6222 188.12 49.5225C188.319 49.4228 188.538 49.373 188.776 49.373C189.075 49.373 189.339 49.4402 189.569 49.5745C189.799 49.7088 189.97 49.906 190.083 50.166C190.182 49.9147 190.347 49.7197 190.577 49.581C190.806 49.4423 191.062 49.373 191.344 49.373ZM197.007 51.0825C197.007 51.1952 197 51.3143 196.987 51.44H194.14C194.162 51.791 194.281 52.0662 194.498 52.2655C194.719 52.4605 194.985 52.558 195.297 52.558C195.553 52.558 195.765 52.4995 195.934 52.3825C196.108 52.2612 196.229 52.1008 196.298 51.9015H196.935C196.84 52.2438 196.649 52.5233 196.363 52.74C196.077 52.9523 195.722 53.0585 195.297 53.0585C194.959 53.0585 194.656 52.9827 194.387 52.831C194.123 52.6793 193.915 52.4648 193.763 52.1875C193.612 51.9058 193.536 51.5808 193.536 51.2125C193.536 50.8442 193.61 50.5213 193.757 50.244C193.904 49.9667 194.11 49.7543 194.374 49.607C194.643 49.4553 194.951 49.3795 195.297 49.3795C195.635 49.3795 195.934 49.4532 196.194 49.6005C196.454 49.7478 196.654 49.9515 196.792 50.2115C196.935 50.4672 197.007 50.7575 197.007 51.0825ZM196.396 50.959C196.396 50.7337 196.346 50.5408 196.246 50.3805C196.147 50.2158 196.01 50.0923 195.837 50.01C195.668 49.9233 195.479 49.88 195.271 49.88C194.972 49.88 194.717 49.9753 194.504 50.166C194.296 50.3567 194.177 50.621 194.147 50.959H196.396ZM197.976 53.039C197.863 53.039 197.768 53 197.69 52.922C197.612 52.844 197.573 52.7487 197.573 52.636C197.573 52.5233 197.612 52.428 197.69 52.35C197.768 52.272 197.863 52.233 197.976 52.233C198.084 52.233 198.175 52.272 198.249 52.35C198.327 52.428 198.366 52.5233 198.366 52.636C198.366 52.7487 198.327 52.844 198.249 52.922C198.175 53 198.084 53.039 197.976 53.039Z" fill="black"/>
<g id="Group 169">
<g id="more-vertical">
<path id="Vector" d="M103.5 8.79171C103.661 8.79171 103.792 8.66112 103.792 8.50004C103.792 8.33896 103.661 8.20837 103.5 8.20837C103.339 8.20837 103.208 8.33896 103.208 8.50004C103.208 8.66112 103.339 8.79171 103.5 8.79171Z" stroke="black" stroke-width="0.5" stroke-linecap="round" stroke-linejoin="round"/>
<path id="Vector_2" d="M103.5 6.74996C103.661 6.74996 103.792 6.61938 103.792 6.45829C103.792 6.29721 103.661 6.16663 103.5 6.16663C103.339 6.16663 103.208 6.29721 103.208 6.45829C103.208 6.61938 103.339 6.74996 103.5 6.74996Z" stroke="black" stroke-width="0.5" stroke-linecap="round" stroke-linejoin="round"/>
<path id="Vector_3" d="M103.5 10.8333C103.661 10.8333 103.792 10.7027 103.792 10.5417C103.792 10.3806 103.661 10.25 103.5 10.25C103.339 10.25 103.208 10.3806 103.208 10.5417C103.208 10.7027 103.339 10.8333 103.5 10.8333Z" stroke="black" stroke-width="0.5" stroke-linecap="round" stroke-linejoin="round"/>
</g>
</g>
</g>
</g>
</svg>
