<svg width="487" height="135" viewBox="0 0 487 135" fill="none" xmlns="http://www.w3.org/2000/svg">
<rect width="487" height="135" fill="#E5E5E5"/>
<g id="Frame 7">
<rect x="0.5" y="0.5" width="486" height="134" rx="4.5" fill="white"/>
<path id="Yourname.myty.in" d="M49.1836 45.5039L53.6367 36.9375H56.1914L50.3086 47.6367V54H48.0586V47.6367L42.1758 36.9375H44.7539L49.1836 45.5039ZM56.707 47.543C56.707 46.3008 56.9492 45.1836 57.4336 44.1914C57.9258 43.1992 58.6055 42.4336 59.4727 41.8945C60.3477 41.3555 61.3438 41.0859 62.4609 41.0859C64.1875 41.0859 65.582 41.6836 66.6445 42.8789C67.7148 44.0742 68.25 45.6641 68.25 47.6484V47.8008C68.25 49.0352 68.0117 50.1445 67.5352 51.1289C67.0664 52.1055 66.3906 52.8672 65.5078 53.4141C64.6328 53.9609 63.625 54.2344 62.4844 54.2344C60.7656 54.2344 59.3711 53.6367 58.3008 52.4414C57.2383 51.2461 56.707 49.6641 56.707 47.6953V47.543ZM58.8867 47.8008C58.8867 49.207 59.2109 50.3359 59.8594 51.1875C60.5156 52.0391 61.3906 52.4648 62.4844 52.4648C63.5859 52.4648 64.4609 52.0352 65.1094 51.1758C65.7578 50.3086 66.082 49.0977 66.082 47.543C66.082 46.1523 65.75 45.0273 65.0859 44.168C64.4297 43.3008 63.5547 42.8672 62.4609 42.8672C61.3906 42.8672 60.5273 43.293 59.8711 44.1445C59.2148 44.9961 58.8867 46.2148 58.8867 47.8008ZM78.7969 52.7461C77.9531 53.7383 76.7148 54.2344 75.082 54.2344C73.7305 54.2344 72.6992 53.8438 71.9883 53.0625C71.2852 52.2734 70.9297 51.1094 70.9219 49.5703V41.3203H73.0898V49.5117C73.0898 51.4336 73.8711 52.3945 75.4336 52.3945C77.0898 52.3945 78.1914 51.7773 78.7383 50.543V41.3203H80.9062V54H78.8438L78.7969 52.7461ZM90.3398 43.2656C90.0117 43.2109 89.6562 43.1836 89.2734 43.1836C87.8516 43.1836 86.8867 43.7891 86.3789 45V54H84.2109V41.3203H86.3203L86.3555 42.7852C87.0664 41.6523 88.0742 41.0859 89.3789 41.0859C89.8008 41.0859 90.1211 41.1406 90.3398 41.25V43.2656ZM94.3945 41.3203L94.4648 42.9141C95.4336 41.6953 96.6992 41.0859 98.2617 41.0859C100.941 41.0859 102.293 42.5977 102.316 45.6211V54H100.148V45.6094C100.141 44.6953 99.9297 44.0195 99.5156 43.582C99.1094 43.1445 98.4727 42.9258 97.6055 42.9258C96.9023 42.9258 96.2852 43.1133 95.7539 43.4883C95.2227 43.8633 94.8086 44.3555 94.5117 44.9648V54H92.3438V41.3203H94.3945ZM113.414 54C113.289 53.75 113.188 53.3047 113.109 52.6641C112.102 53.7109 110.898 54.2344 109.5 54.2344C108.25 54.2344 107.223 53.8828 106.418 53.1797C105.621 52.4688 105.223 51.5703 105.223 50.4844C105.223 49.1641 105.723 48.1406 106.723 47.4141C107.73 46.6797 109.145 46.3125 110.965 46.3125H113.074V45.3164C113.074 44.5586 112.848 43.957 112.395 43.5117C111.941 43.0586 111.273 42.832 110.391 42.832C109.617 42.832 108.969 43.0273 108.445 43.418C107.922 43.8086 107.66 44.2812 107.66 44.8359H105.48C105.48 44.2031 105.703 43.5938 106.148 43.0078C106.602 42.4141 107.211 41.9453 107.977 41.6016C108.75 41.2578 109.598 41.0859 110.52 41.0859C111.98 41.0859 113.125 41.4531 113.953 42.1875C114.781 42.9141 115.211 43.918 115.242 45.1992V51.0352C115.242 52.1992 115.391 53.125 115.688 53.8125V54H113.414ZM109.816 52.3477C110.496 52.3477 111.141 52.1719 111.75 51.8203C112.359 51.4688 112.801 51.0117 113.074 50.4492V47.8477H111.375C108.719 47.8477 107.391 48.625 107.391 50.1797C107.391 50.8594 107.617 51.3906 108.07 51.7734C108.523 52.1562 109.105 52.3477 109.816 52.3477ZM120.68 41.3203L120.738 42.7266C121.668 41.6328 122.922 41.0859 124.5 41.0859C126.273 41.0859 127.48 41.7656 128.121 43.125C128.543 42.5156 129.09 42.0234 129.762 41.6484C130.441 41.2734 131.242 41.0859 132.164 41.0859C134.945 41.0859 136.359 42.5586 136.406 45.5039V54H134.238V45.6328C134.238 44.7266 134.031 44.0508 133.617 43.6055C133.203 43.1523 132.508 42.9258 131.531 42.9258C130.727 42.9258 130.059 43.168 129.527 43.6523C128.996 44.1289 128.688 44.7734 128.602 45.5859V54H126.422V45.6914C126.422 43.8477 125.52 42.9258 123.715 42.9258C122.293 42.9258 121.32 43.5312 120.797 44.7422V54H118.629V41.3203H120.68ZM144.949 54.2344C143.23 54.2344 141.832 53.6719 140.754 52.5469C139.676 51.4141 139.137 49.9023 139.137 48.0117V47.6133C139.137 46.3555 139.375 45.2344 139.852 44.25C140.336 43.2578 141.008 42.4844 141.867 41.9297C142.734 41.3672 143.672 41.0859 144.68 41.0859C146.328 41.0859 147.609 41.6289 148.523 42.7148C149.438 43.8008 149.895 45.3555 149.895 47.3789V48.2812H141.305C141.336 49.5312 141.699 50.543 142.395 51.3164C143.098 52.082 143.988 52.4648 145.066 52.4648C145.832 52.4648 146.48 52.3086 147.012 51.9961C147.543 51.6836 148.008 51.2695 148.406 50.7539L149.73 51.7852C148.668 53.418 147.074 54.2344 144.949 54.2344ZM144.68 42.8672C143.805 42.8672 143.07 43.1875 142.477 43.8281C141.883 44.4609 141.516 45.3516 141.375 46.5H147.727V46.3359C147.664 45.2344 147.367 44.3828 146.836 43.7812C146.305 43.1719 145.586 42.8672 144.68 42.8672ZM152.461 52.8633C152.461 52.4883 152.57 52.1758 152.789 51.9258C153.016 51.6758 153.352 51.5508 153.797 51.5508C154.242 51.5508 154.578 51.6758 154.805 51.9258C155.039 52.1758 155.156 52.4883 155.156 52.8633C155.156 53.2227 155.039 53.5234 154.805 53.7656C154.578 54.0078 154.242 54.1289 153.797 54.1289C153.352 54.1289 153.016 54.0078 152.789 53.7656C152.57 53.5234 152.461 53.2227 152.461 52.8633ZM160.781 41.3203L160.84 42.7266C161.77 41.6328 163.023 41.0859 164.602 41.0859C166.375 41.0859 167.582 41.7656 168.223 43.125C168.645 42.5156 169.191 42.0234 169.863 41.6484C170.543 41.2734 171.344 41.0859 172.266 41.0859C175.047 41.0859 176.461 42.5586 176.508 45.5039V54H174.34V45.6328C174.34 44.7266 174.133 44.0508 173.719 43.6055C173.305 43.1523 172.609 42.9258 171.633 42.9258C170.828 42.9258 170.16 43.168 169.629 43.6523C169.098 44.1289 168.789 44.7734 168.703 45.5859V54H166.523V45.6914C166.523 43.8477 165.621 42.9258 163.816 42.9258C162.395 42.9258 161.422 43.5312 160.898 44.7422V54H158.73V41.3203H160.781ZM183.938 50.8242L186.891 41.3203H189.211L184.113 55.957C183.324 58.0664 182.07 59.1211 180.352 59.1211L179.941 59.0859L179.133 58.9336V57.1758L179.719 57.2227C180.453 57.2227 181.023 57.0742 181.43 56.7773C181.844 56.4805 182.184 55.9375 182.449 55.1484L182.93 53.8594L178.406 41.3203H180.773L183.938 50.8242ZM194.098 38.25V41.3203H196.465V42.9961H194.098V50.8594C194.098 51.3672 194.203 51.75 194.414 52.0078C194.625 52.2578 194.984 52.3828 195.492 52.3828C195.742 52.3828 196.086 52.3359 196.523 52.2422V54C195.953 54.1562 195.398 54.2344 194.859 54.2344C193.891 54.2344 193.16 53.9414 192.668 53.3555C192.176 52.7695 191.93 51.9375 191.93 50.8594V42.9961H189.621V41.3203H191.93V38.25H194.098ZM203.156 50.8242L206.109 41.3203H208.43L203.332 55.957C202.543 58.0664 201.289 59.1211 199.57 59.1211L199.16 59.0859L198.352 58.9336V57.1758L198.938 57.2227C199.672 57.2227 200.242 57.0742 200.648 56.7773C201.062 56.4805 201.402 55.9375 201.668 55.1484L202.148 53.8594L197.625 41.3203H199.992L203.156 50.8242ZM209.156 52.8633C209.156 52.4883 209.266 52.1758 209.484 51.9258C209.711 51.6758 210.047 51.5508 210.492 51.5508C210.938 51.5508 211.273 51.6758 211.5 51.9258C211.734 52.1758 211.852 52.4883 211.852 52.8633C211.852 53.2227 211.734 53.5234 211.5 53.7656C211.273 54.0078 210.938 54.1289 210.492 54.1289C210.047 54.1289 209.711 54.0078 209.484 53.7656C209.266 53.5234 209.156 53.2227 209.156 52.8633ZM217.793 54H215.625V41.3203H217.793V54ZM215.449 37.957C215.449 37.6055 215.555 37.3086 215.766 37.0664C215.984 36.8242 216.305 36.7031 216.727 36.7031C217.148 36.7031 217.469 36.8242 217.688 37.0664C217.906 37.3086 218.016 37.6055 218.016 37.957C218.016 38.3086 217.906 38.6016 217.688 38.8359C217.469 39.0703 217.148 39.1875 216.727 39.1875C216.305 39.1875 215.984 39.0703 215.766 38.8359C215.555 38.6016 215.449 38.3086 215.449 37.957ZM223.324 41.3203L223.395 42.9141C224.363 41.6953 225.629 41.0859 227.191 41.0859C229.871 41.0859 231.223 42.5977 231.246 45.6211V54H229.078V45.6094C229.07 44.6953 228.859 44.0195 228.445 43.582C228.039 43.1445 227.402 42.9258 226.535 42.9258C225.832 42.9258 225.215 43.1133 224.684 43.4883C224.152 43.8633 223.738 44.3555 223.441 44.9648V54H221.273V41.3203H223.324Z" fill="#4285F4"/>
<path id="Your name" d="M49.1836 102.504L53.6367 93.9375H56.1914L50.3086 104.637V111H48.0586V104.637L42.1758 93.9375H44.7539L49.1836 102.504ZM56.707 104.543C56.707 103.301 56.9492 102.184 57.4336 101.191C57.9258 100.199 58.6055 99.4336 59.4727 98.8945C60.3477 98.3555 61.3438 98.0859 62.4609 98.0859C64.1875 98.0859 65.582 98.6836 66.6445 99.8789C67.7148 101.074 68.25 102.664 68.25 104.648V104.801C68.25 106.035 68.0117 107.145 67.5352 108.129C67.0664 109.105 66.3906 109.867 65.5078 110.414C64.6328 110.961 63.625 111.234 62.4844 111.234C60.7656 111.234 59.3711 110.637 58.3008 109.441C57.2383 108.246 56.707 106.664 56.707 104.695V104.543ZM58.8867 104.801C58.8867 106.207 59.2109 107.336 59.8594 108.188C60.5156 109.039 61.3906 109.465 62.4844 109.465C63.5859 109.465 64.4609 109.035 65.1094 108.176C65.7578 107.309 66.082 106.098 66.082 104.543C66.082 103.152 65.75 102.027 65.0859 101.168C64.4297 100.301 63.5547 99.8672 62.4609 99.8672C61.3906 99.8672 60.5273 100.293 59.8711 101.145C59.2148 101.996 58.8867 103.215 58.8867 104.801ZM78.7969 109.746C77.9531 110.738 76.7148 111.234 75.082 111.234C73.7305 111.234 72.6992 110.844 71.9883 110.062C71.2852 109.273 70.9297 108.109 70.9219 106.57V98.3203H73.0898V106.512C73.0898 108.434 73.8711 109.395 75.4336 109.395C77.0898 109.395 78.1914 108.777 78.7383 107.543V98.3203H80.9062V111H78.8438L78.7969 109.746ZM90.3398 100.266C90.0117 100.211 89.6562 100.184 89.2734 100.184C87.8516 100.184 86.8867 100.789 86.3789 102V111H84.2109V98.3203H86.3203L86.3555 99.7852C87.0664 98.6523 88.0742 98.0859 89.3789 98.0859C89.8008 98.0859 90.1211 98.1406 90.3398 98.25V100.266ZM100.348 98.3203L100.418 99.9141C101.387 98.6953 102.652 98.0859 104.215 98.0859C106.895 98.0859 108.246 99.5977 108.27 102.621V111H106.102V102.609C106.094 101.695 105.883 101.02 105.469 100.582C105.062 100.145 104.426 99.9258 103.559 99.9258C102.855 99.9258 102.238 100.113 101.707 100.488C101.176 100.863 100.762 101.355 100.465 101.965V111H98.2969V98.3203H100.348ZM119.367 111C119.242 110.75 119.141 110.305 119.062 109.664C118.055 110.711 116.852 111.234 115.453 111.234C114.203 111.234 113.176 110.883 112.371 110.18C111.574 109.469 111.176 108.57 111.176 107.484C111.176 106.164 111.676 105.141 112.676 104.414C113.684 103.68 115.098 103.312 116.918 103.312H119.027V102.316C119.027 101.559 118.801 100.957 118.348 100.512C117.895 100.059 117.227 99.832 116.344 99.832C115.57 99.832 114.922 100.027 114.398 100.418C113.875 100.809 113.613 101.281 113.613 101.836H111.434C111.434 101.203 111.656 100.594 112.102 100.008C112.555 99.4141 113.164 98.9453 113.93 98.6016C114.703 98.2578 115.551 98.0859 116.473 98.0859C117.934 98.0859 119.078 98.4531 119.906 99.1875C120.734 99.9141 121.164 100.918 121.195 102.199V108.035C121.195 109.199 121.344 110.125 121.641 110.812V111H119.367ZM115.77 109.348C116.449 109.348 117.094 109.172 117.703 108.82C118.312 108.469 118.754 108.012 119.027 107.449V104.848H117.328C114.672 104.848 113.344 105.625 113.344 107.18C113.344 107.859 113.57 108.391 114.023 108.773C114.477 109.156 115.059 109.348 115.77 109.348ZM126.633 98.3203L126.691 99.7266C127.621 98.6328 128.875 98.0859 130.453 98.0859C132.227 98.0859 133.434 98.7656 134.074 100.125C134.496 99.5156 135.043 99.0234 135.715 98.6484C136.395 98.2734 137.195 98.0859 138.117 98.0859C140.898 98.0859 142.312 99.5586 142.359 102.504V111H140.191V102.633C140.191 101.727 139.984 101.051 139.57 100.605C139.156 100.152 138.461 99.9258 137.484 99.9258C136.68 99.9258 136.012 100.168 135.48 100.652C134.949 101.129 134.641 101.773 134.555 102.586V111H132.375V102.691C132.375 100.848 131.473 99.9258 129.668 99.9258C128.246 99.9258 127.273 100.531 126.75 101.742V111H124.582V98.3203H126.633ZM150.902 111.234C149.184 111.234 147.785 110.672 146.707 109.547C145.629 108.414 145.09 106.902 145.09 105.012V104.613C145.09 103.355 145.328 102.234 145.805 101.25C146.289 100.258 146.961 99.4844 147.82 98.9297C148.688 98.3672 149.625 98.0859 150.633 98.0859C152.281 98.0859 153.562 98.6289 154.477 99.7148C155.391 100.801 155.848 102.355 155.848 104.379V105.281H147.258C147.289 106.531 147.652 107.543 148.348 108.316C149.051 109.082 149.941 109.465 151.02 109.465C151.785 109.465 152.434 109.309 152.965 108.996C153.496 108.684 153.961 108.27 154.359 107.754L155.684 108.785C154.621 110.418 153.027 111.234 150.902 111.234ZM150.633 99.8672C149.758 99.8672 149.023 100.188 148.43 100.828C147.836 101.461 147.469 102.352 147.328 103.5H153.68V103.336C153.617 102.234 153.32 101.383 152.789 100.781C152.258 100.172 151.539 99.8672 150.633 99.8672Z" fill="black"/>
<line id="central-line" y1="68.5" x2="427" y2="68.5" stroke="#C4C4C4"/>
<rect x="0.5" y="0.5" width="486" height="134" rx="4.5" stroke="#C4C4C4"/>
</g>
</svg>
