<svg width="255" height="80" viewBox="0 0 255 80" fill="none" xmlns="http://www.w3.org/2000/svg">
<rect width="255" height="80" fill="#E5E5E5"/>
<g id="Frame 7">
<g clip-path="url(#clip0)">
<rect x="0.5" y="0.5" width="254" height="79" rx="4.5" fill="white"/>
<path id="Yourname.myty.in" d="M23.1836 23.5039L27.6367 14.9375H30.1914L24.3086 25.6367V32H22.0586V25.6367L16.1758 14.9375H18.7539L23.1836 23.5039ZM30.707 25.543C30.707 24.3008 30.9492 23.1836 31.4336 22.1914C31.9258 21.1992 32.6055 20.4336 33.4727 19.8945C34.3477 19.3555 35.3438 19.0859 36.4609 19.0859C38.1875 19.0859 39.582 19.6836 40.6445 20.8789C41.7148 22.0742 42.25 23.6641 42.25 25.6484V25.8008C42.25 27.0352 42.0117 28.1445 41.5352 29.1289C41.0664 30.1055 40.3906 30.8672 39.5078 31.4141C38.6328 31.9609 37.625 32.2344 36.4844 32.2344C34.7656 32.2344 33.3711 31.6367 32.3008 30.4414C31.2383 29.2461 30.707 27.6641 30.707 25.6953V25.543ZM32.8867 25.8008C32.8867 27.207 33.2109 28.3359 33.8594 29.1875C34.5156 30.0391 35.3906 30.4648 36.4844 30.4648C37.5859 30.4648 38.4609 30.0352 39.1094 29.1758C39.7578 28.3086 40.082 27.0977 40.082 25.543C40.082 24.1523 39.75 23.0273 39.0859 22.168C38.4297 21.3008 37.5547 20.8672 36.4609 20.8672C35.3906 20.8672 34.5273 21.293 33.8711 22.1445C33.2148 22.9961 32.8867 24.2148 32.8867 25.8008ZM52.7969 30.7461C51.9531 31.7383 50.7148 32.2344 49.082 32.2344C47.7305 32.2344 46.6992 31.8438 45.9883 31.0625C45.2852 30.2734 44.9297 29.1094 44.9219 27.5703V19.3203H47.0898V27.5117C47.0898 29.4336 47.8711 30.3945 49.4336 30.3945C51.0898 30.3945 52.1914 29.7773 52.7383 28.543V19.3203H54.9062V32H52.8438L52.7969 30.7461ZM64.3398 21.2656C64.0117 21.2109 63.6562 21.1836 63.2734 21.1836C61.8516 21.1836 60.8867 21.7891 60.3789 23V32H58.2109V19.3203H60.3203L60.3555 20.7852C61.0664 19.6523 62.0742 19.0859 63.3789 19.0859C63.8008 19.0859 64.1211 19.1406 64.3398 19.25V21.2656ZM68.3945 19.3203L68.4648 20.9141C69.4336 19.6953 70.6992 19.0859 72.2617 19.0859C74.9414 19.0859 76.293 20.5977 76.3164 23.6211V32H74.1484V23.6094C74.1406 22.6953 73.9297 22.0195 73.5156 21.582C73.1094 21.1445 72.4727 20.9258 71.6055 20.9258C70.9023 20.9258 70.2852 21.1133 69.7539 21.4883C69.2227 21.8633 68.8086 22.3555 68.5117 22.9648V32H66.3438V19.3203H68.3945ZM87.4141 32C87.2891 31.75 87.1875 31.3047 87.1094 30.6641C86.1016 31.7109 84.8984 32.2344 83.5 32.2344C82.25 32.2344 81.2227 31.8828 80.418 31.1797C79.6211 30.4688 79.2227 29.5703 79.2227 28.4844C79.2227 27.1641 79.7227 26.1406 80.7227 25.4141C81.7305 24.6797 83.1445 24.3125 84.9648 24.3125H87.0742V23.3164C87.0742 22.5586 86.8477 21.957 86.3945 21.5117C85.9414 21.0586 85.2734 20.832 84.3906 20.832C83.6172 20.832 82.9688 21.0273 82.4453 21.418C81.9219 21.8086 81.6602 22.2812 81.6602 22.8359H79.4805C79.4805 22.2031 79.7031 21.5938 80.1484 21.0078C80.6016 20.4141 81.2109 19.9453 81.9766 19.6016C82.75 19.2578 83.5977 19.0859 84.5195 19.0859C85.9805 19.0859 87.125 19.4531 87.9531 20.1875C88.7812 20.9141 89.2109 21.918 89.2422 23.1992V29.0352C89.2422 30.1992 89.3906 31.125 89.6875 31.8125V32H87.4141ZM83.8164 30.3477C84.4961 30.3477 85.1406 30.1719 85.75 29.8203C86.3594 29.4688 86.8008 29.0117 87.0742 28.4492V25.8477H85.375C82.7188 25.8477 81.3906 26.625 81.3906 28.1797C81.3906 28.8594 81.6172 29.3906 82.0703 29.7734C82.5234 30.1562 83.1055 30.3477 83.8164 30.3477ZM94.6797 19.3203L94.7383 20.7266C95.668 19.6328 96.9219 19.0859 98.5 19.0859C100.273 19.0859 101.48 19.7656 102.121 21.125C102.543 20.5156 103.09 20.0234 103.762 19.6484C104.441 19.2734 105.242 19.0859 106.164 19.0859C108.945 19.0859 110.359 20.5586 110.406 23.5039V32H108.238V23.6328C108.238 22.7266 108.031 22.0508 107.617 21.6055C107.203 21.1523 106.508 20.9258 105.531 20.9258C104.727 20.9258 104.059 21.168 103.527 21.6523C102.996 22.1289 102.688 22.7734 102.602 23.5859V32H100.422V23.6914C100.422 21.8477 99.5195 20.9258 97.7148 20.9258C96.293 20.9258 95.3203 21.5312 94.7969 22.7422V32H92.6289V19.3203H94.6797ZM118.949 32.2344C117.23 32.2344 115.832 31.6719 114.754 30.5469C113.676 29.4141 113.137 27.9023 113.137 26.0117V25.6133C113.137 24.3555 113.375 23.2344 113.852 22.25C114.336 21.2578 115.008 20.4844 115.867 19.9297C116.734 19.3672 117.672 19.0859 118.68 19.0859C120.328 19.0859 121.609 19.6289 122.523 20.7148C123.438 21.8008 123.895 23.3555 123.895 25.3789V26.2812H115.305C115.336 27.5312 115.699 28.543 116.395 29.3164C117.098 30.082 117.988 30.4648 119.066 30.4648C119.832 30.4648 120.48 30.3086 121.012 29.9961C121.543 29.6836 122.008 29.2695 122.406 28.7539L123.73 29.7852C122.668 31.418 121.074 32.2344 118.949 32.2344ZM118.68 20.8672C117.805 20.8672 117.07 21.1875 116.477 21.8281C115.883 22.4609 115.516 23.3516 115.375 24.5H121.727V24.3359C121.664 23.2344 121.367 22.3828 120.836 21.7812C120.305 21.1719 119.586 20.8672 118.68 20.8672ZM126.461 30.8633C126.461 30.4883 126.57 30.1758 126.789 29.9258C127.016 29.6758 127.352 29.5508 127.797 29.5508C128.242 29.5508 128.578 29.6758 128.805 29.9258C129.039 30.1758 129.156 30.4883 129.156 30.8633C129.156 31.2227 129.039 31.5234 128.805 31.7656C128.578 32.0078 128.242 32.1289 127.797 32.1289C127.352 32.1289 127.016 32.0078 126.789 31.7656C126.57 31.5234 126.461 31.2227 126.461 30.8633ZM134.781 19.3203L134.84 20.7266C135.77 19.6328 137.023 19.0859 138.602 19.0859C140.375 19.0859 141.582 19.7656 142.223 21.125C142.645 20.5156 143.191 20.0234 143.863 19.6484C144.543 19.2734 145.344 19.0859 146.266 19.0859C149.047 19.0859 150.461 20.5586 150.508 23.5039V32H148.34V23.6328C148.34 22.7266 148.133 22.0508 147.719 21.6055C147.305 21.1523 146.609 20.9258 145.633 20.9258C144.828 20.9258 144.16 21.168 143.629 21.6523C143.098 22.1289 142.789 22.7734 142.703 23.5859V32H140.523V23.6914C140.523 21.8477 139.621 20.9258 137.816 20.9258C136.395 20.9258 135.422 21.5312 134.898 22.7422V32H132.73V19.3203H134.781ZM157.938 28.8242L160.891 19.3203H163.211L158.113 33.957C157.324 36.0664 156.07 37.1211 154.352 37.1211L153.941 37.0859L153.133 36.9336V35.1758L153.719 35.2227C154.453 35.2227 155.023 35.0742 155.43 34.7773C155.844 34.4805 156.184 33.9375 156.449 33.1484L156.93 31.8594L152.406 19.3203H154.773L157.938 28.8242ZM168.098 16.25V19.3203H170.465V20.9961H168.098V28.8594C168.098 29.3672 168.203 29.75 168.414 30.0078C168.625 30.2578 168.984 30.3828 169.492 30.3828C169.742 30.3828 170.086 30.3359 170.523 30.2422V32C169.953 32.1562 169.398 32.2344 168.859 32.2344C167.891 32.2344 167.16 31.9414 166.668 31.3555C166.176 30.7695 165.93 29.9375 165.93 28.8594V20.9961H163.621V19.3203H165.93V16.25H168.098ZM177.156 28.8242L180.109 19.3203H182.43L177.332 33.957C176.543 36.0664 175.289 37.1211 173.57 37.1211L173.16 37.0859L172.352 36.9336V35.1758L172.938 35.2227C173.672 35.2227 174.242 35.0742 174.648 34.7773C175.062 34.4805 175.402 33.9375 175.668 33.1484L176.148 31.8594L171.625 19.3203H173.992L177.156 28.8242ZM183.156 30.8633C183.156 30.4883 183.266 30.1758 183.484 29.9258C183.711 29.6758 184.047 29.5508 184.492 29.5508C184.938 29.5508 185.273 29.6758 185.5 29.9258C185.734 30.1758 185.852 30.4883 185.852 30.8633C185.852 31.2227 185.734 31.5234 185.5 31.7656C185.273 32.0078 184.938 32.1289 184.492 32.1289C184.047 32.1289 183.711 32.0078 183.484 31.7656C183.266 31.5234 183.156 31.2227 183.156 30.8633ZM191.793 32H189.625V19.3203H191.793V32ZM189.449 15.957C189.449 15.6055 189.555 15.3086 189.766 15.0664C189.984 14.8242 190.305 14.7031 190.727 14.7031C191.148 14.7031 191.469 14.8242 191.688 15.0664C191.906 15.3086 192.016 15.6055 192.016 15.957C192.016 16.3086 191.906 16.6016 191.688 16.8359C191.469 17.0703 191.148 17.1875 190.727 17.1875C190.305 17.1875 189.984 17.0703 189.766 16.8359C189.555 16.6016 189.449 16.3086 189.449 15.957ZM197.324 19.3203L197.395 20.9141C198.363 19.6953 199.629 19.0859 201.191 19.0859C203.871 19.0859 205.223 20.5977 205.246 23.6211V32H203.078V23.6094C203.07 22.6953 202.859 22.0195 202.445 21.582C202.039 21.1445 201.402 20.9258 200.535 20.9258C199.832 20.9258 199.215 21.1133 198.684 21.4883C198.152 21.8633 197.738 22.3555 197.441 22.9648V32H195.273V19.3203H197.324Z" fill="#4285F4"/>
<path id="Your name" d="M23.1836 59.5039L27.6367 50.9375H30.1914L24.3086 61.6367V68H22.0586V61.6367L16.1758 50.9375H18.7539L23.1836 59.5039ZM30.707 61.543C30.707 60.3008 30.9492 59.1836 31.4336 58.1914C31.9258 57.1992 32.6055 56.4336 33.4727 55.8945C34.3477 55.3555 35.3438 55.0859 36.4609 55.0859C38.1875 55.0859 39.582 55.6836 40.6445 56.8789C41.7148 58.0742 42.25 59.6641 42.25 61.6484V61.8008C42.25 63.0352 42.0117 64.1445 41.5352 65.1289C41.0664 66.1055 40.3906 66.8672 39.5078 67.4141C38.6328 67.9609 37.625 68.2344 36.4844 68.2344C34.7656 68.2344 33.3711 67.6367 32.3008 66.4414C31.2383 65.2461 30.707 63.6641 30.707 61.6953V61.543ZM32.8867 61.8008C32.8867 63.207 33.2109 64.3359 33.8594 65.1875C34.5156 66.0391 35.3906 66.4648 36.4844 66.4648C37.5859 66.4648 38.4609 66.0352 39.1094 65.1758C39.7578 64.3086 40.082 63.0977 40.082 61.543C40.082 60.1523 39.75 59.0273 39.0859 58.168C38.4297 57.3008 37.5547 56.8672 36.4609 56.8672C35.3906 56.8672 34.5273 57.293 33.8711 58.1445C33.2148 58.9961 32.8867 60.2148 32.8867 61.8008ZM52.7969 66.7461C51.9531 67.7383 50.7148 68.2344 49.082 68.2344C47.7305 68.2344 46.6992 67.8438 45.9883 67.0625C45.2852 66.2734 44.9297 65.1094 44.9219 63.5703V55.3203H47.0898V63.5117C47.0898 65.4336 47.8711 66.3945 49.4336 66.3945C51.0898 66.3945 52.1914 65.7773 52.7383 64.543V55.3203H54.9062V68H52.8438L52.7969 66.7461ZM64.3398 57.2656C64.0117 57.2109 63.6562 57.1836 63.2734 57.1836C61.8516 57.1836 60.8867 57.7891 60.3789 59V68H58.2109V55.3203H60.3203L60.3555 56.7852C61.0664 55.6523 62.0742 55.0859 63.3789 55.0859C63.8008 55.0859 64.1211 55.1406 64.3398 55.25V57.2656ZM74.3477 55.3203L74.418 56.9141C75.3867 55.6953 76.6523 55.0859 78.2148 55.0859C80.8945 55.0859 82.2461 56.5977 82.2695 59.6211V68H80.1016V59.6094C80.0938 58.6953 79.8828 58.0195 79.4688 57.582C79.0625 57.1445 78.4258 56.9258 77.5586 56.9258C76.8555 56.9258 76.2383 57.1133 75.707 57.4883C75.1758 57.8633 74.7617 58.3555 74.4648 58.9648V68H72.2969V55.3203H74.3477ZM93.3672 68C93.2422 67.75 93.1406 67.3047 93.0625 66.6641C92.0547 67.7109 90.8516 68.2344 89.4531 68.2344C88.2031 68.2344 87.1758 67.8828 86.3711 67.1797C85.5742 66.4688 85.1758 65.5703 85.1758 64.4844C85.1758 63.1641 85.6758 62.1406 86.6758 61.4141C87.6836 60.6797 89.0977 60.3125 90.918 60.3125H93.0273V59.3164C93.0273 58.5586 92.8008 57.957 92.3477 57.5117C91.8945 57.0586 91.2266 56.832 90.3438 56.832C89.5703 56.832 88.9219 57.0273 88.3984 57.418C87.875 57.8086 87.6133 58.2812 87.6133 58.8359H85.4336C85.4336 58.2031 85.6562 57.5938 86.1016 57.0078C86.5547 56.4141 87.1641 55.9453 87.9297 55.6016C88.7031 55.2578 89.5508 55.0859 90.4727 55.0859C91.9336 55.0859 93.0781 55.4531 93.9062 56.1875C94.7344 56.9141 95.1641 57.918 95.1953 59.1992V65.0352C95.1953 66.1992 95.3438 67.125 95.6406 67.8125V68H93.3672ZM89.7695 66.3477C90.4492 66.3477 91.0938 66.1719 91.7031 65.8203C92.3125 65.4688 92.7539 65.0117 93.0273 64.4492V61.8477H91.3281C88.6719 61.8477 87.3438 62.625 87.3438 64.1797C87.3438 64.8594 87.5703 65.3906 88.0234 65.7734C88.4766 66.1562 89.0586 66.3477 89.7695 66.3477ZM100.633 55.3203L100.691 56.7266C101.621 55.6328 102.875 55.0859 104.453 55.0859C106.227 55.0859 107.434 55.7656 108.074 57.125C108.496 56.5156 109.043 56.0234 109.715 55.6484C110.395 55.2734 111.195 55.0859 112.117 55.0859C114.898 55.0859 116.312 56.5586 116.359 59.5039V68H114.191V59.6328C114.191 58.7266 113.984 58.0508 113.57 57.6055C113.156 57.1523 112.461 56.9258 111.484 56.9258C110.68 56.9258 110.012 57.168 109.48 57.6523C108.949 58.1289 108.641 58.7734 108.555 59.5859V68H106.375V59.6914C106.375 57.8477 105.473 56.9258 103.668 56.9258C102.246 56.9258 101.273 57.5312 100.75 58.7422V68H98.582V55.3203H100.633ZM124.902 68.2344C123.184 68.2344 121.785 67.6719 120.707 66.5469C119.629 65.4141 119.09 63.9023 119.09 62.0117V61.6133C119.09 60.3555 119.328 59.2344 119.805 58.25C120.289 57.2578 120.961 56.4844 121.82 55.9297C122.688 55.3672 123.625 55.0859 124.633 55.0859C126.281 55.0859 127.562 55.6289 128.477 56.7148C129.391 57.8008 129.848 59.3555 129.848 61.3789V62.2812H121.258C121.289 63.5312 121.652 64.543 122.348 65.3164C123.051 66.082 123.941 66.4648 125.02 66.4648C125.785 66.4648 126.434 66.3086 126.965 65.9961C127.496 65.6836 127.961 65.2695 128.359 64.7539L129.684 65.7852C128.621 67.418 127.027 68.2344 124.902 68.2344ZM124.633 56.8672C123.758 56.8672 123.023 57.1875 122.43 57.8281C121.836 58.4609 121.469 59.3516 121.328 60.5H127.68V60.3359C127.617 59.2344 127.32 58.3828 126.789 57.7812C126.258 57.1719 125.539 56.8672 124.633 56.8672Z" fill="black"/>
<line id="central-line" x1="-17" y1="40.5" x2="279" y2="40.5" stroke="#C4C4C4"/>
</g>
<rect x="0.5" y="0.5" width="254" height="79" rx="4.5" stroke="#C4C4C4"/>
</g>
<defs>
<clipPath id="clip0">
</clipPath>
</defs>
</svg>
