<svg width="220" height="59" viewBox="0 0 220 59" fill="none" xmlns="http://www.w3.org/2000/svg">
<rect width="220" height="59" fill="#E5E5E5"/>
<g id="Frame 7">
<g clip-path="url(#clip0)">
<rect x="0.5" y="0.5" width="219" height="58" rx="4.5" fill="white"/>
<path id="Yourname.myty.in" d="M18.1836 19.5039L22.6367 10.9375H25.1914L19.3086 21.6367V28H17.0586V21.6367L11.1758 10.9375H13.7539L18.1836 19.5039ZM25.707 21.543C25.707 20.3008 25.9492 19.1836 26.4336 18.1914C26.9258 17.1992 27.6055 16.4336 28.4727 15.8945C29.3477 15.3555 30.3438 15.0859 31.4609 15.0859C33.1875 15.0859 34.582 15.6836 35.6445 16.8789C36.7148 18.0742 37.25 19.6641 37.25 21.6484V21.8008C37.25 23.0352 37.0117 24.1445 36.5352 25.1289C36.0664 26.1055 35.3906 26.8672 34.5078 27.4141C33.6328 27.9609 32.625 28.2344 31.4844 28.2344C29.7656 28.2344 28.3711 27.6367 27.3008 26.4414C26.2383 25.2461 25.707 23.6641 25.707 21.6953V21.543ZM27.8867 21.8008C27.8867 23.207 28.2109 24.3359 28.8594 25.1875C29.5156 26.0391 30.3906 26.4648 31.4844 26.4648C32.5859 26.4648 33.4609 26.0352 34.1094 25.1758C34.7578 24.3086 35.082 23.0977 35.082 21.543C35.082 20.1523 34.75 19.0273 34.0859 18.168C33.4297 17.3008 32.5547 16.8672 31.4609 16.8672C30.3906 16.8672 29.5273 17.293 28.8711 18.1445C28.2148 18.9961 27.8867 20.2148 27.8867 21.8008ZM47.7969 26.7461C46.9531 27.7383 45.7148 28.2344 44.082 28.2344C42.7305 28.2344 41.6992 27.8438 40.9883 27.0625C40.2852 26.2734 39.9297 25.1094 39.9219 23.5703V15.3203H42.0898V23.5117C42.0898 25.4336 42.8711 26.3945 44.4336 26.3945C46.0898 26.3945 47.1914 25.7773 47.7383 24.543V15.3203H49.9062V28H47.8438L47.7969 26.7461ZM59.3398 17.2656C59.0117 17.2109 58.6562 17.1836 58.2734 17.1836C56.8516 17.1836 55.8867 17.7891 55.3789 19V28H53.2109V15.3203H55.3203L55.3555 16.7852C56.0664 15.6523 57.0742 15.0859 58.3789 15.0859C58.8008 15.0859 59.1211 15.1406 59.3398 15.25V17.2656ZM63.3945 15.3203L63.4648 16.9141C64.4336 15.6953 65.6992 15.0859 67.2617 15.0859C69.9414 15.0859 71.293 16.5977 71.3164 19.6211V28H69.1484V19.6094C69.1406 18.6953 68.9297 18.0195 68.5156 17.582C68.1094 17.1445 67.4727 16.9258 66.6055 16.9258C65.9023 16.9258 65.2852 17.1133 64.7539 17.4883C64.2227 17.8633 63.8086 18.3555 63.5117 18.9648V28H61.3438V15.3203H63.3945ZM82.4141 28C82.2891 27.75 82.1875 27.3047 82.1094 26.6641C81.1016 27.7109 79.8984 28.2344 78.5 28.2344C77.25 28.2344 76.2227 27.8828 75.418 27.1797C74.6211 26.4688 74.2227 25.5703 74.2227 24.4844C74.2227 23.1641 74.7227 22.1406 75.7227 21.4141C76.7305 20.6797 78.1445 20.3125 79.9648 20.3125H82.0742V19.3164C82.0742 18.5586 81.8477 17.957 81.3945 17.5117C80.9414 17.0586 80.2734 16.832 79.3906 16.832C78.6172 16.832 77.9688 17.0273 77.4453 17.418C76.9219 17.8086 76.6602 18.2812 76.6602 18.8359H74.4805C74.4805 18.2031 74.7031 17.5938 75.1484 17.0078C75.6016 16.4141 76.2109 15.9453 76.9766 15.6016C77.75 15.2578 78.5977 15.0859 79.5195 15.0859C80.9805 15.0859 82.125 15.4531 82.9531 16.1875C83.7812 16.9141 84.2109 17.918 84.2422 19.1992V25.0352C84.2422 26.1992 84.3906 27.125 84.6875 27.8125V28H82.4141ZM78.8164 26.3477C79.4961 26.3477 80.1406 26.1719 80.75 25.8203C81.3594 25.4688 81.8008 25.0117 82.0742 24.4492V21.8477H80.375C77.7188 21.8477 76.3906 22.625 76.3906 24.1797C76.3906 24.8594 76.6172 25.3906 77.0703 25.7734C77.5234 26.1562 78.1055 26.3477 78.8164 26.3477ZM89.6797 15.3203L89.7383 16.7266C90.668 15.6328 91.9219 15.0859 93.5 15.0859C95.2734 15.0859 96.4805 15.7656 97.1211 17.125C97.543 16.5156 98.0898 16.0234 98.7617 15.6484C99.4414 15.2734 100.242 15.0859 101.164 15.0859C103.945 15.0859 105.359 16.5586 105.406 19.5039V28H103.238V19.6328C103.238 18.7266 103.031 18.0508 102.617 17.6055C102.203 17.1523 101.508 16.9258 100.531 16.9258C99.7266 16.9258 99.0586 17.168 98.5273 17.6523C97.9961 18.1289 97.6875 18.7734 97.6016 19.5859V28H95.4219V19.6914C95.4219 17.8477 94.5195 16.9258 92.7148 16.9258C91.293 16.9258 90.3203 17.5312 89.7969 18.7422V28H87.6289V15.3203H89.6797ZM113.949 28.2344C112.23 28.2344 110.832 27.6719 109.754 26.5469C108.676 25.4141 108.137 23.9023 108.137 22.0117V21.6133C108.137 20.3555 108.375 19.2344 108.852 18.25C109.336 17.2578 110.008 16.4844 110.867 15.9297C111.734 15.3672 112.672 15.0859 113.68 15.0859C115.328 15.0859 116.609 15.6289 117.523 16.7148C118.438 17.8008 118.895 19.3555 118.895 21.3789V22.2812H110.305C110.336 23.5312 110.699 24.543 111.395 25.3164C112.098 26.082 112.988 26.4648 114.066 26.4648C114.832 26.4648 115.48 26.3086 116.012 25.9961C116.543 25.6836 117.008 25.2695 117.406 24.7539L118.73 25.7852C117.668 27.418 116.074 28.2344 113.949 28.2344ZM113.68 16.8672C112.805 16.8672 112.07 17.1875 111.477 17.8281C110.883 18.4609 110.516 19.3516 110.375 20.5H116.727V20.3359C116.664 19.2344 116.367 18.3828 115.836 17.7812C115.305 17.1719 114.586 16.8672 113.68 16.8672ZM121.461 26.8633C121.461 26.4883 121.57 26.1758 121.789 25.9258C122.016 25.6758 122.352 25.5508 122.797 25.5508C123.242 25.5508 123.578 25.6758 123.805 25.9258C124.039 26.1758 124.156 26.4883 124.156 26.8633C124.156 27.2227 124.039 27.5234 123.805 27.7656C123.578 28.0078 123.242 28.1289 122.797 28.1289C122.352 28.1289 122.016 28.0078 121.789 27.7656C121.57 27.5234 121.461 27.2227 121.461 26.8633ZM129.781 15.3203L129.84 16.7266C130.77 15.6328 132.023 15.0859 133.602 15.0859C135.375 15.0859 136.582 15.7656 137.223 17.125C137.645 16.5156 138.191 16.0234 138.863 15.6484C139.543 15.2734 140.344 15.0859 141.266 15.0859C144.047 15.0859 145.461 16.5586 145.508 19.5039V28H143.34V19.6328C143.34 18.7266 143.133 18.0508 142.719 17.6055C142.305 17.1523 141.609 16.9258 140.633 16.9258C139.828 16.9258 139.16 17.168 138.629 17.6523C138.098 18.1289 137.789 18.7734 137.703 19.5859V28H135.523V19.6914C135.523 17.8477 134.621 16.9258 132.816 16.9258C131.395 16.9258 130.422 17.5312 129.898 18.7422V28H127.73V15.3203H129.781ZM152.938 24.8242L155.891 15.3203H158.211L153.113 29.957C152.324 32.0664 151.07 33.1211 149.352 33.1211L148.941 33.0859L148.133 32.9336V31.1758L148.719 31.2227C149.453 31.2227 150.023 31.0742 150.43 30.7773C150.844 30.4805 151.184 29.9375 151.449 29.1484L151.93 27.8594L147.406 15.3203H149.773L152.938 24.8242ZM163.098 12.25V15.3203H165.465V16.9961H163.098V24.8594C163.098 25.3672 163.203 25.75 163.414 26.0078C163.625 26.2578 163.984 26.3828 164.492 26.3828C164.742 26.3828 165.086 26.3359 165.523 26.2422V28C164.953 28.1562 164.398 28.2344 163.859 28.2344C162.891 28.2344 162.16 27.9414 161.668 27.3555C161.176 26.7695 160.93 25.9375 160.93 24.8594V16.9961H158.621V15.3203H160.93V12.25H163.098ZM172.156 24.8242L175.109 15.3203H177.43L172.332 29.957C171.543 32.0664 170.289 33.1211 168.57 33.1211L168.16 33.0859L167.352 32.9336V31.1758L167.938 31.2227C168.672 31.2227 169.242 31.0742 169.648 30.7773C170.062 30.4805 170.402 29.9375 170.668 29.1484L171.148 27.8594L166.625 15.3203H168.992L172.156 24.8242ZM178.156 26.8633C178.156 26.4883 178.266 26.1758 178.484 25.9258C178.711 25.6758 179.047 25.5508 179.492 25.5508C179.938 25.5508 180.273 25.6758 180.5 25.9258C180.734 26.1758 180.852 26.4883 180.852 26.8633C180.852 27.2227 180.734 27.5234 180.5 27.7656C180.273 28.0078 179.938 28.1289 179.492 28.1289C179.047 28.1289 178.711 28.0078 178.484 27.7656C178.266 27.5234 178.156 27.2227 178.156 26.8633ZM186.793 28H184.625V15.3203H186.793V28ZM184.449 11.957C184.449 11.6055 184.555 11.3086 184.766 11.0664C184.984 10.8242 185.305 10.7031 185.727 10.7031C186.148 10.7031 186.469 10.8242 186.688 11.0664C186.906 11.3086 187.016 11.6055 187.016 11.957C187.016 12.3086 186.906 12.6016 186.688 12.8359C186.469 13.0703 186.148 13.1875 185.727 13.1875C185.305 13.1875 184.984 13.0703 184.766 12.8359C184.555 12.6016 184.449 12.3086 184.449 11.957ZM192.324 15.3203L192.395 16.9141C193.363 15.6953 194.629 15.0859 196.191 15.0859C198.871 15.0859 200.223 16.5977 200.246 19.6211V28H198.078V19.6094C198.07 18.6953 197.859 18.0195 197.445 17.582C197.039 17.1445 196.402 16.9258 195.535 16.9258C194.832 16.9258 194.215 17.1133 193.684 17.4883C193.152 17.8633 192.738 18.3555 192.441 18.9648V28H190.273V15.3203H192.324Z" fill="#4285F4"/>
<path id="Your name" d="M18.1836 45.5039L22.6367 36.9375H25.1914L19.3086 47.6367V54H17.0586V47.6367L11.1758 36.9375H13.7539L18.1836 45.5039ZM25.707 47.543C25.707 46.3008 25.9492 45.1836 26.4336 44.1914C26.9258 43.1992 27.6055 42.4336 28.4727 41.8945C29.3477 41.3555 30.3438 41.0859 31.4609 41.0859C33.1875 41.0859 34.582 41.6836 35.6445 42.8789C36.7148 44.0742 37.25 45.6641 37.25 47.6484V47.8008C37.25 49.0352 37.0117 50.1445 36.5352 51.1289C36.0664 52.1055 35.3906 52.8672 34.5078 53.4141C33.6328 53.9609 32.625 54.2344 31.4844 54.2344C29.7656 54.2344 28.3711 53.6367 27.3008 52.4414C26.2383 51.2461 25.707 49.6641 25.707 47.6953V47.543ZM27.8867 47.8008C27.8867 49.207 28.2109 50.3359 28.8594 51.1875C29.5156 52.0391 30.3906 52.4648 31.4844 52.4648C32.5859 52.4648 33.4609 52.0352 34.1094 51.1758C34.7578 50.3086 35.082 49.0977 35.082 47.543C35.082 46.1523 34.75 45.0273 34.0859 44.168C33.4297 43.3008 32.5547 42.8672 31.4609 42.8672C30.3906 42.8672 29.5273 43.293 28.8711 44.1445C28.2148 44.9961 27.8867 46.2148 27.8867 47.8008ZM47.7969 52.7461C46.9531 53.7383 45.7148 54.2344 44.082 54.2344C42.7305 54.2344 41.6992 53.8438 40.9883 53.0625C40.2852 52.2734 39.9297 51.1094 39.9219 49.5703V41.3203H42.0898V49.5117C42.0898 51.4336 42.8711 52.3945 44.4336 52.3945C46.0898 52.3945 47.1914 51.7773 47.7383 50.543V41.3203H49.9062V54H47.8438L47.7969 52.7461ZM59.3398 43.2656C59.0117 43.2109 58.6562 43.1836 58.2734 43.1836C56.8516 43.1836 55.8867 43.7891 55.3789 45V54H53.2109V41.3203H55.3203L55.3555 42.7852C56.0664 41.6523 57.0742 41.0859 58.3789 41.0859C58.8008 41.0859 59.1211 41.1406 59.3398 41.25V43.2656ZM69.3477 41.3203L69.418 42.9141C70.3867 41.6953 71.6523 41.0859 73.2148 41.0859C75.8945 41.0859 77.2461 42.5977 77.2695 45.6211V54H75.1016V45.6094C75.0938 44.6953 74.8828 44.0195 74.4688 43.582C74.0625 43.1445 73.4258 42.9258 72.5586 42.9258C71.8555 42.9258 71.2383 43.1133 70.707 43.4883C70.1758 43.8633 69.7617 44.3555 69.4648 44.9648V54H67.2969V41.3203H69.3477ZM88.3672 54C88.2422 53.75 88.1406 53.3047 88.0625 52.6641C87.0547 53.7109 85.8516 54.2344 84.4531 54.2344C83.2031 54.2344 82.1758 53.8828 81.3711 53.1797C80.5742 52.4688 80.1758 51.5703 80.1758 50.4844C80.1758 49.1641 80.6758 48.1406 81.6758 47.4141C82.6836 46.6797 84.0977 46.3125 85.918 46.3125H88.0273V45.3164C88.0273 44.5586 87.8008 43.957 87.3477 43.5117C86.8945 43.0586 86.2266 42.832 85.3438 42.832C84.5703 42.832 83.9219 43.0273 83.3984 43.418C82.875 43.8086 82.6133 44.2812 82.6133 44.8359H80.4336C80.4336 44.2031 80.6562 43.5938 81.1016 43.0078C81.5547 42.4141 82.1641 41.9453 82.9297 41.6016C83.7031 41.2578 84.5508 41.0859 85.4727 41.0859C86.9336 41.0859 88.0781 41.4531 88.9062 42.1875C89.7344 42.9141 90.1641 43.918 90.1953 45.1992V51.0352C90.1953 52.1992 90.3438 53.125 90.6406 53.8125V54H88.3672ZM84.7695 52.3477C85.4492 52.3477 86.0938 52.1719 86.7031 51.8203C87.3125 51.4688 87.7539 51.0117 88.0273 50.4492V47.8477H86.3281C83.6719 47.8477 82.3438 48.625 82.3438 50.1797C82.3438 50.8594 82.5703 51.3906 83.0234 51.7734C83.4766 52.1562 84.0586 52.3477 84.7695 52.3477ZM95.6328 41.3203L95.6914 42.7266C96.6211 41.6328 97.875 41.0859 99.4531 41.0859C101.227 41.0859 102.434 41.7656 103.074 43.125C103.496 42.5156 104.043 42.0234 104.715 41.6484C105.395 41.2734 106.195 41.0859 107.117 41.0859C109.898 41.0859 111.312 42.5586 111.359 45.5039V54H109.191V45.6328C109.191 44.7266 108.984 44.0508 108.57 43.6055C108.156 43.1523 107.461 42.9258 106.484 42.9258C105.68 42.9258 105.012 43.168 104.48 43.6523C103.949 44.1289 103.641 44.7734 103.555 45.5859V54H101.375V45.6914C101.375 43.8477 100.473 42.9258 98.668 42.9258C97.2461 42.9258 96.2734 43.5312 95.75 44.7422V54H93.582V41.3203H95.6328ZM119.902 54.2344C118.184 54.2344 116.785 53.6719 115.707 52.5469C114.629 51.4141 114.09 49.9023 114.09 48.0117V47.6133C114.09 46.3555 114.328 45.2344 114.805 44.25C115.289 43.2578 115.961 42.4844 116.82 41.9297C117.688 41.3672 118.625 41.0859 119.633 41.0859C121.281 41.0859 122.562 41.6289 123.477 42.7148C124.391 43.8008 124.848 45.3555 124.848 47.3789V48.2812H116.258C116.289 49.5312 116.652 50.543 117.348 51.3164C118.051 52.082 118.941 52.4648 120.02 52.4648C120.785 52.4648 121.434 52.3086 121.965 51.9961C122.496 51.6836 122.961 51.2695 123.359 50.7539L124.684 51.7852C123.621 53.418 122.027 54.2344 119.902 54.2344ZM119.633 42.8672C118.758 42.8672 118.023 43.1875 117.43 43.8281C116.836 44.4609 116.469 45.3516 116.328 46.5H122.68V46.3359C122.617 45.2344 122.32 44.3828 121.789 43.7812C121.258 43.1719 120.539 42.8672 119.633 42.8672Z" fill="black"/>
<line id="central-line" x1="-38" y1="31.5" x2="245" y2="31.5" stroke="#C4C4C4"/>
</g>
<rect x="0.5" y="0.5" width="219" height="58" rx="4.5" stroke="#C4C4C4"/>
</g>
<defs>
<clipPath id="clip0">
</clipPath>
</defs>
</svg>
